<?xml version="1.0" encoding="UTF-8"?>
<svg width="42px" height="42px" viewBox="0 0 42 42" version="1.1" xmlns="http://www.w3.org/2000/svg" xmlns:xlink="http://www.w3.org/1999/xlink">
    <!-- Generator: Sketch 46.2 (44496) - http://www.bohemiancoding.com/sketch -->
    <title>默认头像40</title>
    <desc>Created with Sketch.</desc>
    <defs>
        <rect id="path-1" x="13.5" y="23" width="5" height="4" rx="1.5"></rect>
        <rect id="path-2" x="21.5" y="23" width="5" height="4" rx="1.5"></rect>
    </defs>
    <g id="图标" stroke="none" stroke-width="1" fill="none" fill-rule="evenodd">
        <g id="默认头像40">
            <g transform="translate(1.000000, -5.000000)">
                <g id="Oval-7">
                    <circle id="Mask" fill="#BABABA" cx="20" cy="26" r="20"></circle>
                    <rect id="Rectangle-13" x="20.4444444" y="0.666666667" width="20" height="48"></rect>
                    <path d="M6.59872387,40.8462878 C8.0459985,36.1548179 13.4968379,32.6666667 20,32.6666667 C26.5031621,32.6666667 31.9540015,36.1548179 33.4012761,40.8462878 C29.8548761,44.0495285 25.1552165,46 20,46 C14.8447835,46 10.1451239,44.0495285 6.59872387,40.8462878 Z" id="Combined-Shape" fill="#CECECE"></path>
                    <path d="M19.0525492,35.914388 C19.3416212,36.4648764 19.7455745,36.7388022 20.264409,36.7361654 C20.7832435,36.7335285 21.18405,36.4596028 21.4668287,35.914388 L23.1117939,43.2055069 L22.2429199,45.8754883 C21.432607,45.9542338 20.8474477,45.9957377 20.487442,46 C20.0436452,46.0127563 19.4696452,45.9992167 18.7654419,45.9593811 L17.7999992,43.2055069 L19.0525492,35.914388 Z" id="Path-6" fill="#999999"></path>
                </g>
                <path d="M10.872763,14.1951463 C12.618289,10 17.1162719,10 20.1943726,10 C23.2724734,10 27.7162512,10 29.2387504,14.1951463 C30.2537499,16.9919104 30.2537499,20.2438962 29.2387504,23.9511035 L10.872763,25 C9.709079,20.5935283 9.709079,16.9919104 10.872763,14.1951463 Z" id="Path" fill="#999999"></path>
                <path d="M11.9238863,23.5464203 C10.8604262,23.4013985 10.2524817,23.6306976 10.1000526,24.2343176 C9.87140909,25.1397475 10.038047,26.2027011 10.5650407,26.7979375 C10.9163699,27.1947617 11.3693184,27.3931738 11.9238863,27.3931738 C12.2145716,28.4650993 12.6743172,29.3849432 13.3031232,30.1527054 C14.246332,31.3043488 17.0416838,33.3675995 18.4439152,33.7448619 C19.8461466,34.1221244 21.7590297,34.1830159 23.3517251,33.2113996 C24.9444205,32.2397832 26.4243126,31.0119757 26.9015572,29.9882322 C27.2197203,29.3057365 27.5275069,28.4814585 27.8249171,27.515398 C28.5948717,27.4381806 29.1521994,27.199027 29.4969001,26.7979375 C30.0139513,26.1963031 30.1915079,24.816096 29.7470197,24.2343176 C29.4506942,23.8464653 28.950672,23.6171662 28.2469531,23.5464203 L28.2469531,19.3082845 L27.4699122,18 C24.7632527,19.2598949 22.3484775,19.9042563 20.2255865,19.9330841 C18.1026955,19.961912 15.7952077,19.3175506 13.3031232,18 C12.3836319,18.4556566 11.9238863,18.8917514 11.9238863,19.3082845 C11.9238863,19.7248176 11.9238863,21.1375295 11.9238863,23.5464203 Z" id="Path-4" fill="#E7E7E7"></path>
                <path d="M18.7000008,34 C18.9259395,34.8911966 19.2019242,35.4642415 19.5279549,35.7191346 C20.0170009,36.1014742 20.5443056,36.1292201 21.0725572,35.5784866 C21.4247249,35.2113309 21.6338727,34.6851687 21.7000008,34 L18.7000008,34 Z" id="Path-5" fill="#999999"></path>
                <path d="M18,25 L22,25" id="Line-2" stroke="#979797" stroke-width="0.5" stroke-linecap="square"></path>
                <rect id="Rectangle-17" fill-opacity="0.3" fill="#6D67FF" x="26" y="39" width="3" height="1"></rect>
                <g id="Rectangle-18-Copy-2">
                    <use fill="#D8D8D8" fill-rule="evenodd" xlink:href="#path-1"></use>
                    <rect stroke="#979797" stroke-width="0.5" x="13.75" y="23.25" width="4.5" height="3.5" rx="1.5"></rect>
                </g>
                <g id="Rectangle-18-Copy-3">
                    <use fill="#D8D8D8" fill-rule="evenodd" xlink:href="#path-2"></use>
                    <rect stroke="#979797" stroke-width="0.5" x="21.75" y="23.25" width="4.5" height="3.5" rx="1.5"></rect>
                </g>
            </g>
        </g>
    </g>
</svg>