<?xml version="1.0" encoding="UTF-8"?>
<svg width="47px" height="47px" viewBox="0 0 47 47" version="1.1" xmlns="http://www.w3.org/2000/svg" xmlns:xlink="http://www.w3.org/1999/xlink">
    <!-- Generator: Sketch 46.2 (44496) - http://www.bohemiancoding.com/sketch -->
    <title>默认头像45</title>
    <desc>Created with Sketch.</desc>
    <defs>
        <rect id="path-1" x="15" y="19" width="6" height="5" rx="1.5"></rect>
        <rect id="path-2" x="24" y="19" width="6" height="5" rx="1.5"></rect>
    </defs>
    <g id="图标" stroke="none" stroke-width="1" fill="none" fill-rule="evenodd">
        <g id="默认头像45">
            <g transform="translate(1.000000, 1.000000)">
                <g id="Oval-7">
                    <circle id="Mask" fill="#BABABA" cx="22.5" cy="22.5" r="22.5"></circle>
                    <path d="M7.42356435,39.2020738 C9.05174832,33.9241702 15.1839427,30 22.5,30 C29.8160573,30 35.9482517,33.9241702 37.5764357,39.2020738 C33.5867356,42.8057195 28.2996186,45 22.5,45 C16.7003814,45 11.4132644,42.8057195 7.42356435,39.2020738 Z" id="Combined-Shape" fill="#CECECE"></path>
                    <path d="M21.2091064,33.6536865 C21.5343125,34.272986 21.9887599,34.5811525 22.5724487,34.578186 C23.1561375,34.5752196 23.6070449,34.2670531 23.9251709,33.6536865 L25.7757568,41.8561953 L24.8449402,44.8856506 C24.0732524,44.9588318 23.4207153,44.9969482 22.8873291,45 C22.2460327,45.0127665 21.5759633,44.9917857 20.877121,44.9370575 L19.7999878,41.8561953 L21.2091064,33.6536865 Z" id="Path-6" fill="#999999"></path>
                </g>
                <path d="M11.6459961,9.65917969 C13.7058105,5 19.0136719,5 22.6459961,5 C26.2783203,5 31.5222168,5 33.3188477,9.65917969 C34.5166016,12.7652995 34.4457601,16.4800212 33.1063232,20.8033447 L11.6459961,21.6591797 C10.2727865,16.7652995 10.2727865,12.7652995 11.6459961,9.65917969 Z" id="Path" fill="#999999"></path>
                <path d="M13.1652154,20.1376953 C11.9683567,19.9772135 11.2841526,20.230957 11.1126031,20.8989258 C10.8552789,21.9008789 11.0428195,23.0771484 11.6359185,23.7358398 C12.0313178,24.1749674 12.5410834,24.3945312 13.1652154,24.3945312 C13.4923638,25.5807292 14.0097792,26.5986328 14.7174615,27.4482422 C15.7789849,28.7226563 18.924981,31.0058594 20.503106,31.4233398 C22.081231,31.8408203 24.234063,31.9082031 26.0265435,30.8330078 C27.819024,29.7578125 29.4845513,28.3991148 30.0216607,27.2662354 C30.3797336,26.5109824 30.7261285,25.5988323 31.0608453,24.5297852 C31.9273817,24.4443359 32.5546197,24.1796875 32.9425591,23.7358398 C33.5244683,23.0700684 33.7242974,21.5427246 33.2240533,20.8989258 C32.8905572,20.4697266 32.327813,20.2159831 31.5358208,20.1376953 L31.5358208,15.4477539 L30.6613091,14 C27.6151308,15.3942057 24.8974502,16.1072591 22.5082672,16.1391602 C20.1190842,16.1710612 17.522149,15.4580078 14.7174615,14 C13.6826307,14.5042318 13.1652154,14.9868164 13.1652154,15.4477539 C13.1652154,15.9086914 13.1652154,17.4720052 13.1652154,20.1376953 Z" id="Path-4" fill="#E7E7E7"></path>
                <path d="M21,32 C21.2259387,32.9366862 21.5019234,33.5389811 21.8279541,33.8068848 C22.3170002,34.2087402 22.8443049,34.2379023 23.3725564,33.6590576 C23.7247241,33.2731611 23.933872,32.7201419 24,32 L21,32 Z" id="Path-5" fill="#999999"></path>
                <path d="M21,21 L24,21" id="Line-2" stroke="#979797" stroke-width="0.5" stroke-linecap="square"></path>
                <rect id="Rectangle-17" fill-opacity="0.3" fill="#6D67FF" x="29" y="37" width="3" height="1"></rect>
                <g id="Rectangle-18">
                    <use fill="#D8D8D8" fill-rule="evenodd" xlink:href="#path-1"></use>
                    <rect stroke="#979797" stroke-width="0.5" x="15.25" y="19.25" width="5.5" height="4.5" rx="1.5"></rect>
                </g>
                <g id="Rectangle-18-Copy">
                    <use fill="#D8D8D8" fill-rule="evenodd" xlink:href="#path-2"></use>
                    <rect stroke="#979797" stroke-width="0.5" x="24.25" y="19.25" width="5.5" height="4.5" rx="1.5"></rect>
                </g>
            </g>
        </g>
    </g>
</svg>