<?xml version="1.0" encoding="UTF-8"?>
<svg width="18px" height="18px" viewBox="0 0 18 18" version="1.1" xmlns="http://www.w3.org/2000/svg" xmlns:xlink="http://www.w3.org/1999/xlink">
    <!-- Generator: Sketch 52.3 (67297) - http://www.bohemiancoding.com/sketch -->
    <title>客服</title>
    <desc>Created with Sketch.</desc>
    <g id="客服" stroke="none" stroke-width="1" fill="none" fill-rule="evenodd">
        <g id="分组">
            <rect id="矩形" fill="#FF9090" opacity="0" x="0" y="0" width="18" height="18"></rect>
            <path d="M13.8,4.8 L13.8,4.8 C14.9045695,4.8 15.8,5.6954305 15.8,6.8 L15.8,7.28509115 C15.8,8.1217522 15.1217522,8.8 14.2850911,8.8 L14.1,8.8 C13.9343146,8.8 13.8,8.66568542 13.8,8.5 L13.8,7.82402344 L13.8,4.8 Z" id="矩形" fill="#FFFFFF"></path>
            <path d="M2.2,4.8 L2.2,4.8 C3.3045695,4.8 4.2,5.6954305 4.2,6.8 L4.2,7.25696615 C4.2,8.10916021 3.50916021,8.8 2.65696615,8.8 L2.5,8.8 C2.33431458,8.8 2.2,8.66568542 2.2,8.5 L2.2,7.82021484 L2.2,4.8 Z" id="矩形-copy" fill="#FFFFFF" transform="translate(3.200000, 6.800000) scale(-1, 1) translate(-3.200000, -6.800000) "></path>
            <circle id="椭圆形" fill="#FFFFFF" fill-rule="nonzero" cx="9" cy="7.05" r="4.05"></circle>
            <path d="M14.4,6.9 C14.4,3.91766235 11.9823376,1.5 9,1.5 C6.01766235,1.5 3.6,3.91766235 3.6,6.9" id="路径" stroke="#FFFFFF" stroke-width="1.1" fill-rule="nonzero"></path>
            <path d="M8.99258376,12.3513095 C10.2039672,12.3513095 11.3315806,12.0244509 12.2750255,11.4622295 C12.3230196,11.4336287 12.4462679,11.3475521 12.6447703,11.2039996 L12.6447586,11.2039833 C12.9318445,10.9963693 13.3073525,10.956154 13.6318926,11.0982654 C13.6792389,11.1189977 13.7198855,11.1371387 13.7538324,11.1526884 C14.0051898,11.2678251 14.2046857,11.3708436 14.3523201,11.4617438 C15.8287929,12.3708254 16.8378187,13.8625592 16.9821548,15.574927 C16.9821548,15.574927 16.9821548,15.574927 16.9821548,15.574927 L16.9821548,15.574927 C17.0003461,15.7907439 16.8401389,15.980445 16.624322,15.9986363 C16.6133668,15.9995597 16.6023777,16.0000221 16.5913837,16.0000221 C16.5584565,16 16.5287694,16 16.5023223,16 C9.85638016,16 4.85156581,16 1.48787921,16 C1.4542495,16 1.41555793,16 1.3718045,16 L1.3718045,15.999971 C1.16640953,15.999971 0.999904006,15.8334655 0.999904006,15.6280705 C0.999904006,15.6182291 1.00029465,15.6083916 1.001075,15.5985813 C1.001075,15.5985813 1.001075,15.5985813 1.001075,15.5985813 C1.13795596,13.8777584 2.14786883,12.3775498 3.62908306,11.4640635 C3.83209202,11.3388649 4.04395404,11.2246875 4.26363486,11.1224738 C4.28588961,11.1121191 4.31016251,11.1011888 4.33645357,11.0896831 L4.33645516,11.0896867 C4.66216787,10.9471451 5.03907125,10.9882622 5.32638807,11.1976802 C5.50116561,11.3250712 5.61654898,11.4057234 5.67253819,11.4396369 C6.62356059,12.0156849 7.76506387,12.3513095 8.99258376,12.3513095 Z" id="路径" fill="#FFFFFF"></path>
        </g>
    </g>
</svg>