<?xml version="1.0" encoding="UTF-8"?>
<svg width="60px" height="60px" viewBox="0 0 60 60" version="1.1" xmlns="http://www.w3.org/2000/svg" xmlns:xlink="http://www.w3.org/1999/xlink">
    <!-- Generator: Sketch 46.2 (44496) - http://www.bohemiancoding.com/sketch -->
    <title>Group 8</title>
    <desc>Created with Sketch.</desc>
    <defs></defs>
    <g id="成绩模版管理／成绩管理" stroke="none" stroke-width="1" fill="none" fill-rule="evenodd">
        <g id="2成绩管理">
            <g id="菜单栏（左侧）">
                <g id="Group-8">
                    <g id="上底色" fill="#6D67FF">
                        <rect id="Rectangle-10-Copy" x="0" y="0" width="60" height="60"></rect>
                    </g>
                    <path d="M8.344,20.064 L12.516,20.064 C13.4306712,20.064 14.2099968,20.2039986 14.854,20.484 C15.4980032,20.7640014 16.0253313,21.137331 16.436,21.604 C16.8466687,22.070669 17.1406658,22.6073303 17.318,23.214 C17.4953342,23.8206697 17.584,24.4506634 17.584,25.104 L17.584,25.832 C17.584,26.373336 17.5420004,26.8306648 17.458,27.204 C17.3739996,27.5773352 17.2480008,27.9039986 17.08,28.184 C16.9119992,28.4640014 16.7066679,28.7113323 16.464,28.926 C16.2213321,29.1406677 15.9413349,29.3413324 15.624,29.528 C16.2960034,29.8453349 16.7906651,30.3166635 17.108,30.942 C17.4253349,31.5673365 17.584,32.4026614 17.584,33.448 L17.584,34.568 C17.584,36.3226754 17.1593376,37.666662 16.31,38.6 C15.4606624,39.533338 14.102676,40 12.236,40 L8.344,40 L8.344,20.064 Z M11.2,37.144 L12.432,37.144 C13.0106696,37.144 13.4633317,37.0600008 13.79,36.892 C14.1166683,36.7239992 14.3639992,36.4906682 14.532,36.192 C14.7000008,35.8933318 14.8026665,35.5386687 14.84,35.128 C14.8773335,34.7173313 14.896,34.2693358 14.896,33.784 C14.896,33.2799975 14.8680003,32.8413352 14.812,32.468 C14.7559997,32.0946648 14.6393342,31.7820013 14.462,31.53 C14.2846658,31.2779987 14.0373349,31.0866673 13.72,30.956 C13.4026651,30.8253327 12.9826693,30.76 12.46,30.76 L11.2,30.76 L11.2,37.144 Z M11.2,28.24 L12.488,28.24 C13.4400048,28.24 14.0793317,28.0020024 14.406,27.526 C14.7326683,27.0499976 14.896,26.3546712 14.896,25.44 C14.896,24.5439955 14.7140018,23.8720022 14.35,23.424 C13.9859982,22.9759978 13.3280048,22.752 12.376,22.752 L11.2,22.752 L11.2,28.24 Z M20.104,24.768 C20.104,23.9653293 20.2439986,23.2560031 20.524,22.64 C20.8040014,22.0239969 21.1726644,21.5153353 21.63,21.114 C22.0873356,20.7126647 22.6006638,20.4093344 23.17,20.204 C23.7393362,19.9986656 24.3133304,19.896 24.892,19.896 C25.4706696,19.896 26.0446638,19.9986656 26.614,20.204 C27.1833362,20.4093344 27.6966644,20.7126647 28.154,21.114 C28.6113356,21.5153353 28.9799986,22.0239969 29.26,22.64 C29.5400014,23.2560031 29.68,23.9653293 29.68,24.768 L29.68,35.296 C29.68,36.1173374 29.5400014,36.8313303 29.26,37.438 C28.9799986,38.0446697 28.6113356,38.5486647 28.154,38.95 C27.6966644,39.3513353 27.1833362,39.6546656 26.614,39.86 C26.0446638,40.0653344 25.4706696,40.168 24.892,40.168 C24.3133304,40.168 23.7393362,40.0653344 23.17,39.86 C22.6006638,39.6546656 22.0873356,39.3513353 21.63,38.95 C21.1726644,38.5486647 20.8040014,38.0446697 20.524,37.438 C20.2439986,36.8313303 20.104,36.1173374 20.104,35.296 L20.104,24.768 Z M22.96,35.296 C22.96,35.9866701 23.1513314,36.4953317 23.534,36.822 C23.9166686,37.1486683 24.3693307,37.312 24.892,37.312 C25.4146693,37.312 25.8673314,37.1486683 26.25,36.822 C26.6326686,36.4953317 26.824,35.9866701 26.824,35.296 L26.824,24.768 C26.824,24.0773299 26.6326686,23.5686683 26.25,23.242 C25.8673314,22.9153317 25.4146693,22.752 24.892,22.752 C24.3693307,22.752 23.9166686,22.9153317 23.534,23.242 C23.1513314,23.5686683 22.96,24.0773299 22.96,24.768 L22.96,35.296 Z M41.44,25.804 L38.584,25.804 L38.584,25.16 C38.584,24.5066634 38.4300015,23.9420024 38.122,23.466 C37.8139985,22.9899976 37.2960036,22.752 36.568,22.752 C36.175998,22.752 35.8540013,22.8266659 35.602,22.976 C35.3499987,23.1253341 35.1540007,23.3166655 35.014,23.55 C34.8739993,23.7833345 34.7760003,24.0539985 34.72,24.362 C34.6639997,24.6700015 34.636,24.9919983 34.636,25.328 C34.636,25.720002 34.6499999,26.051332 34.678,26.322 C34.7060001,26.592668 34.7759994,26.825999 34.888,27.022 C35.0000006,27.218001 35.1633323,27.3906659 35.378,27.54 C35.5926677,27.6893341 35.8866648,27.8386659 36.26,27.988 L38.444,28.856 C39.0786698,29.0986679 39.591998,29.3833317 39.984,29.71 C40.376002,30.0366683 40.6793323,30.4193311 40.894,30.858 C41.1086677,31.2966689 41.253333,31.8006638 41.328,32.37 C41.402667,32.9393362 41.44,33.5879964 41.44,34.316 C41.44,35.1560042 41.3560008,35.9353297 41.188,36.654 C41.0199992,37.3726703 40.7446686,37.9886641 40.362,38.502 C39.9793314,39.0153359 39.4706698,39.4213318 38.836,39.72 C38.2013302,40.0186682 37.4266712,40.168 36.512,40.168 C35.8213299,40.168 35.1773363,40.0466679 34.58,39.804 C33.9826637,39.5613321 33.4693355,39.2300021 33.04,38.81 C32.6106645,38.3899979 32.2700013,37.8906696 32.018,37.312 C31.7659987,36.7333304 31.64,36.1080034 31.64,35.436 L31.64,34.372 L34.496,34.372 L34.496,35.268 C34.496,35.7906693 34.6499985,36.2619979 34.958,36.682 C35.2660015,37.1020021 35.7839964,37.312 36.512,37.312 C36.9973358,37.312 37.375332,37.2420007 37.646,37.102 C37.916668,36.9619993 38.1219993,36.7660013 38.262,36.514 C38.4020007,36.2619987 38.4906665,35.9493352 38.528,35.576 C38.5653335,35.2026648 38.584,34.7920022 38.584,34.344 C38.584,33.8213307 38.5653335,33.3920017 38.528,33.056 C38.4906665,32.7199983 38.4113339,32.4493344 38.29,32.244 C38.1686661,32.0386656 38.0006677,31.8706673 37.786,31.74 C37.5713323,31.6093327 37.2866684,31.4693341 36.932,31.32 L34.888,30.48 C33.6559938,29.9759975 32.8300021,29.3086708 32.41,28.478 C31.9899979,27.6473292 31.78,26.6066729 31.78,25.356 C31.78,24.6093296 31.8826656,23.9000034 32.088,23.228 C32.2933344,22.5559966 32.5966647,21.9773358 32.998,21.492 C33.3993353,21.0066642 33.9079969,20.6193348 34.524,20.33 C35.1400031,20.0406652 35.8586626,19.896 36.68,19.896 C37.3893369,19.896 38.0379971,20.0266654 38.626,20.288 C39.2140029,20.5493346 39.7179979,20.8946645 40.138,21.324 C40.5580021,21.7533355 40.8799989,22.2339973 41.104,22.766 C41.3280011,23.2980027 41.44,23.8439972 41.44,24.404 L41.44,25.804 Z M52.808,25.804 L49.952,25.804 L49.952,25.16 C49.952,24.5066634 49.7980015,23.9420024 49.49,23.466 C49.1819985,22.9899976 48.6640036,22.752 47.936,22.752 C47.543998,22.752 47.2220013,22.8266659 46.97,22.976 C46.7179987,23.1253341 46.5220007,23.3166655 46.382,23.55 C46.2419993,23.7833345 46.1440003,24.0539985 46.088,24.362 C46.0319997,24.6700015 46.004,24.9919983 46.004,25.328 C46.004,25.720002 46.0179999,26.051332 46.046,26.322 C46.0740001,26.592668 46.1439994,26.825999 46.256,27.022 C46.3680006,27.218001 46.5313323,27.3906659 46.746,27.54 C46.9606677,27.6893341 47.2546648,27.8386659 47.628,27.988 L49.812,28.856 C50.4466698,29.0986679 50.959998,29.3833317 51.352,29.71 C51.744002,30.0366683 52.0473323,30.4193311 52.262,30.858 C52.4766677,31.2966689 52.621333,31.8006638 52.696,32.37 C52.770667,32.9393362 52.808,33.5879964 52.808,34.316 C52.808,35.1560042 52.7240008,35.9353297 52.556,36.654 C52.3879992,37.3726703 52.1126686,37.9886641 51.73,38.502 C51.3473314,39.0153359 50.8386698,39.4213318 50.204,39.72 C49.5693302,40.0186682 48.7946712,40.168 47.88,40.168 C47.1893299,40.168 46.5453363,40.0466679 45.948,39.804 C45.3506637,39.5613321 44.8373355,39.2300021 44.408,38.81 C43.9786645,38.3899979 43.6380013,37.8906696 43.386,37.312 C43.1339987,36.7333304 43.008,36.1080034 43.008,35.436 L43.008,34.372 L45.864,34.372 L45.864,35.268 C45.864,35.7906693 46.0179985,36.2619979 46.326,36.682 C46.6340015,37.1020021 47.1519964,37.312 47.88,37.312 C48.3653358,37.312 48.743332,37.2420007 49.014,37.102 C49.284668,36.9619993 49.4899993,36.7660013 49.63,36.514 C49.7700007,36.2619987 49.8586665,35.9493352 49.896,35.576 C49.9333335,35.2026648 49.952,34.7920022 49.952,34.344 C49.952,33.8213307 49.9333335,33.3920017 49.896,33.056 C49.8586665,32.7199983 49.7793339,32.4493344 49.658,32.244 C49.5366661,32.0386656 49.3686677,31.8706673 49.154,31.74 C48.9393323,31.6093327 48.6546684,31.4693341 48.3,31.32 L46.256,30.48 C45.0239938,29.9759975 44.1980021,29.3086708 43.778,28.478 C43.3579979,27.6473292 43.148,26.6066729 43.148,25.356 C43.148,24.6093296 43.2506656,23.9000034 43.456,23.228 C43.6613344,22.5559966 43.9646647,21.9773358 44.366,21.492 C44.7673353,21.0066642 45.2759969,20.6193348 45.892,20.33 C46.5080031,20.0406652 47.2266626,19.896 48.048,19.896 C48.7573369,19.896 49.4059971,20.0266654 49.994,20.288 C50.5820029,20.5493346 51.0859979,20.8946645 51.506,21.324 C51.9260021,21.7533355 52.2479989,22.2339973 52.472,22.766 C52.6960011,23.2980027 52.808,23.8439972 52.808,24.404 L52.808,25.804 Z" id="BOSS" fill="#FFFFFF"></path>
                </g>
            </g>
        </g>
    </g>
</svg>