<?xml version="1.0" encoding="UTF-8"?>
<svg width="210px" height="60px" viewBox="0 0 210 60" version="1.1" xmlns="http://www.w3.org/2000/svg" xmlns:xlink="http://www.w3.org/1999/xlink">
    <!-- Generator: Sketch 46.2 (44496) - http://www.bohemiancoding.com/sketch -->
    <title>Group 8</title>
    <desc>Created with Sketch.</desc>
    <defs></defs>
    <g id="成绩模版管理／成绩管理" stroke="none" stroke-width="1" fill="none" fill-rule="evenodd">
        <g id="1成绩管理-">
            <g id="Group-8">
                <g id="上底色" fill="#6D67FF">
                    <rect id="Rectangle-10-Copy" x="0" y="0" width="210" height="60"></rect>
                </g>
                <path d="M26.344,19.064 L30.516,19.064 C31.4306712,19.064 32.2099968,19.2039986 32.854,19.484 C33.4980032,19.7640014 34.0253313,20.137331 34.436,20.604 C34.8466687,21.070669 35.1406658,21.6073303 35.318,22.214 C35.4953342,22.8206697 35.584,23.4506634 35.584,24.104 L35.584,24.832 C35.584,25.373336 35.5420004,25.8306648 35.458,26.204 C35.3739996,26.5773352 35.2480008,26.9039986 35.08,27.184 C34.9119992,27.4640014 34.7066679,27.7113323 34.464,27.926 C34.2213321,28.1406677 33.9413349,28.3413324 33.624,28.528 C34.2960034,28.8453349 34.7906651,29.3166635 35.108,29.942 C35.4253349,30.5673365 35.584,31.4026614 35.584,32.448 L35.584,33.568 C35.584,35.3226754 35.1593376,36.666662 34.31,37.6 C33.4606624,38.533338 32.102676,39 30.236,39 L26.344,39 L26.344,19.064 Z M29.2,36.144 L30.432,36.144 C31.0106696,36.144 31.4633317,36.0600008 31.79,35.892 C32.1166683,35.7239992 32.3639992,35.4906682 32.532,35.192 C32.7000008,34.8933318 32.8026665,34.5386687 32.84,34.128 C32.8773335,33.7173313 32.896,33.2693358 32.896,32.784 C32.896,32.2799975 32.8680003,31.8413352 32.812,31.468 C32.7559997,31.0946648 32.6393342,30.7820013 32.462,30.53 C32.2846658,30.2779987 32.0373349,30.0866673 31.72,29.956 C31.4026651,29.8253327 30.9826693,29.76 30.46,29.76 L29.2,29.76 L29.2,36.144 Z M29.2,27.24 L30.488,27.24 C31.4400048,27.24 32.0793317,27.0020024 32.406,26.526 C32.7326683,26.0499976 32.896,25.3546712 32.896,24.44 C32.896,23.5439955 32.7140018,22.8720022 32.35,22.424 C31.9859982,21.9759978 31.3280048,21.752 30.376,21.752 L29.2,21.752 L29.2,27.24 Z M38.104,23.768 C38.104,22.9653293 38.2439986,22.2560031 38.524,21.64 C38.8040014,21.0239969 39.1726644,20.5153353 39.63,20.114 C40.0873356,19.7126647 40.6006638,19.4093344 41.17,19.204 C41.7393362,18.9986656 42.3133304,18.896 42.892,18.896 C43.4706696,18.896 44.0446638,18.9986656 44.614,19.204 C45.1833362,19.4093344 45.6966644,19.7126647 46.154,20.114 C46.6113356,20.5153353 46.9799986,21.0239969 47.26,21.64 C47.5400014,22.2560031 47.68,22.9653293 47.68,23.768 L47.68,34.296 C47.68,35.1173374 47.5400014,35.8313303 47.26,36.438 C46.9799986,37.0446697 46.6113356,37.5486647 46.154,37.95 C45.6966644,38.3513353 45.1833362,38.6546656 44.614,38.86 C44.0446638,39.0653344 43.4706696,39.168 42.892,39.168 C42.3133304,39.168 41.7393362,39.0653344 41.17,38.86 C40.6006638,38.6546656 40.0873356,38.3513353 39.63,37.95 C39.1726644,37.5486647 38.8040014,37.0446697 38.524,36.438 C38.2439986,35.8313303 38.104,35.1173374 38.104,34.296 L38.104,23.768 Z M40.96,34.296 C40.96,34.9866701 41.1513314,35.4953317 41.534,35.822 C41.9166686,36.1486683 42.3693307,36.312 42.892,36.312 C43.4146693,36.312 43.8673314,36.1486683 44.25,35.822 C44.6326686,35.4953317 44.824,34.9866701 44.824,34.296 L44.824,23.768 C44.824,23.0773299 44.6326686,22.5686683 44.25,22.242 C43.8673314,21.9153317 43.4146693,21.752 42.892,21.752 C42.3693307,21.752 41.9166686,21.9153317 41.534,22.242 C41.1513314,22.5686683 40.96,23.0773299 40.96,23.768 L40.96,34.296 Z M59.44,24.804 L56.584,24.804 L56.584,24.16 C56.584,23.5066634 56.4300015,22.9420024 56.122,22.466 C55.8139985,21.9899976 55.2960036,21.752 54.568,21.752 C54.175998,21.752 53.8540013,21.8266659 53.602,21.976 C53.3499987,22.1253341 53.1540007,22.3166655 53.014,22.55 C52.8739993,22.7833345 52.7760003,23.0539985 52.72,23.362 C52.6639997,23.6700015 52.636,23.9919983 52.636,24.328 C52.636,24.720002 52.6499999,25.051332 52.678,25.322 C52.7060001,25.592668 52.7759994,25.825999 52.888,26.022 C53.0000006,26.218001 53.1633323,26.3906659 53.378,26.54 C53.5926677,26.6893341 53.8866648,26.8386659 54.26,26.988 L56.444,27.856 C57.0786698,28.0986679 57.591998,28.3833317 57.984,28.71 C58.376002,29.0366683 58.6793323,29.4193311 58.894,29.858 C59.1086677,30.2966689 59.253333,30.8006638 59.328,31.37 C59.402667,31.9393362 59.44,32.5879964 59.44,33.316 C59.44,34.1560042 59.3560008,34.9353297 59.188,35.654 C59.0199992,36.3726703 58.7446686,36.9886641 58.362,37.502 C57.9793314,38.0153359 57.4706698,38.4213318 56.836,38.72 C56.2013302,39.0186682 55.4266712,39.168 54.512,39.168 C53.8213299,39.168 53.1773363,39.0466679 52.58,38.804 C51.9826637,38.5613321 51.4693355,38.2300021 51.04,37.81 C50.6106645,37.3899979 50.2700013,36.8906696 50.018,36.312 C49.7659987,35.7333304 49.64,35.1080034 49.64,34.436 L49.64,33.372 L52.496,33.372 L52.496,34.268 C52.496,34.7906693 52.6499985,35.2619979 52.958,35.682 C53.2660015,36.1020021 53.7839964,36.312 54.512,36.312 C54.9973358,36.312 55.375332,36.2420007 55.646,36.102 C55.916668,35.9619993 56.1219993,35.7660013 56.262,35.514 C56.4020007,35.2619987 56.4906665,34.9493352 56.528,34.576 C56.5653335,34.2026648 56.584,33.7920022 56.584,33.344 C56.584,32.8213307 56.5653335,32.3920017 56.528,32.056 C56.4906665,31.7199983 56.4113339,31.4493344 56.29,31.244 C56.1686661,31.0386656 56.0006677,30.8706673 55.786,30.74 C55.5713323,30.6093327 55.2866684,30.4693341 54.932,30.32 L52.888,29.48 C51.6559938,28.9759975 50.8300021,28.3086708 50.41,27.478 C49.9899979,26.6473292 49.78,25.6066729 49.78,24.356 C49.78,23.6093296 49.8826656,22.9000034 50.088,22.228 C50.2933344,21.5559966 50.5966647,20.9773358 50.998,20.492 C51.3993353,20.0066642 51.9079969,19.6193348 52.524,19.33 C53.1400031,19.0406652 53.8586626,18.896 54.68,18.896 C55.3893369,18.896 56.0379971,19.0266654 56.626,19.288 C57.2140029,19.5493346 57.7179979,19.8946645 58.138,20.324 C58.5580021,20.7533355 58.8799989,21.2339973 59.104,21.766 C59.3280011,22.2980027 59.44,22.8439972 59.44,23.404 L59.44,24.804 Z M70.808,24.804 L67.952,24.804 L67.952,24.16 C67.952,23.5066634 67.7980015,22.9420024 67.49,22.466 C67.1819985,21.9899976 66.6640036,21.752 65.936,21.752 C65.543998,21.752 65.2220013,21.8266659 64.97,21.976 C64.7179987,22.1253341 64.5220007,22.3166655 64.382,22.55 C64.2419993,22.7833345 64.1440003,23.0539985 64.088,23.362 C64.0319997,23.6700015 64.004,23.9919983 64.004,24.328 C64.004,24.720002 64.0179999,25.051332 64.046,25.322 C64.0740001,25.592668 64.1439994,25.825999 64.256,26.022 C64.3680006,26.218001 64.5313323,26.3906659 64.746,26.54 C64.9606677,26.6893341 65.2546648,26.8386659 65.628,26.988 L67.812,27.856 C68.4466698,28.0986679 68.959998,28.3833317 69.352,28.71 C69.744002,29.0366683 70.0473323,29.4193311 70.262,29.858 C70.4766677,30.2966689 70.621333,30.8006638 70.696,31.37 C70.770667,31.9393362 70.808,32.5879964 70.808,33.316 C70.808,34.1560042 70.7240008,34.9353297 70.556,35.654 C70.3879992,36.3726703 70.1126686,36.9886641 69.73,37.502 C69.3473314,38.0153359 68.8386698,38.4213318 68.204,38.72 C67.5693302,39.0186682 66.7946712,39.168 65.88,39.168 C65.1893299,39.168 64.5453363,39.0466679 63.948,38.804 C63.3506637,38.5613321 62.8373355,38.2300021 62.408,37.81 C61.9786645,37.3899979 61.6380013,36.8906696 61.386,36.312 C61.1339987,35.7333304 61.008,35.1080034 61.008,34.436 L61.008,33.372 L63.864,33.372 L63.864,34.268 C63.864,34.7906693 64.0179985,35.2619979 64.326,35.682 C64.6340015,36.1020021 65.1519964,36.312 65.88,36.312 C66.3653358,36.312 66.743332,36.2420007 67.014,36.102 C67.284668,35.9619993 67.4899993,35.7660013 67.63,35.514 C67.7700007,35.2619987 67.8586665,34.9493352 67.896,34.576 C67.9333335,34.2026648 67.952,33.7920022 67.952,33.344 C67.952,32.8213307 67.9333335,32.3920017 67.896,32.056 C67.8586665,31.7199983 67.7793339,31.4493344 67.658,31.244 C67.5366661,31.0386656 67.3686677,30.8706673 67.154,30.74 C66.9393323,30.6093327 66.6546684,30.4693341 66.3,30.32 L64.256,29.48 C63.0239938,28.9759975 62.1980021,28.3086708 61.778,27.478 C61.3579979,26.6473292 61.148,25.6066729 61.148,24.356 C61.148,23.6093296 61.2506656,22.9000034 61.456,22.228 C61.6613344,21.5559966 61.9646647,20.9773358 62.366,20.492 C62.7673353,20.0066642 63.2759969,19.6193348 63.892,19.33 C64.5080031,19.0406652 65.2266626,18.896 66.048,18.896 C66.7573369,18.896 67.4059971,19.0266654 67.994,19.288 C68.5820029,19.5493346 69.0859979,19.8946645 69.506,20.324 C69.9260021,20.7533355 70.2479989,21.2339973 70.472,21.766 C70.6960011,22.2980027 70.808,22.8439972 70.808,23.404 L70.808,24.804 Z" id="BOSS" fill="#FFFFFF"></path>
                <path d="M78.52,21.348 L77.206,22.59 C78.502,23.634 79.492,24.606 80.194,25.506 L81.544,24.174 C80.716,23.238 79.708,22.284 78.52,21.348 Z M88.762,37.584 C87.79,37.584 86.728,37.566 85.594,37.548 C84.442,37.53 83.506,37.422 82.75,37.242 C82.03,37.026 81.418,36.612 80.896,36 C80.662,35.694 80.446,35.55 80.23,35.55 C79.888,35.55 79.276,36.36 78.376,37.98 L76.99,36.684 C77.89,35.244 78.682,34.326 79.402,33.93 L79.402,28.998 L77.026,28.998 L77.026,27.27 L81.148,27.27 L81.148,34.128 L81.328,34.308 C81.724,34.776 82.138,35.136 82.552,35.37 C83.074,35.64 83.848,35.784 84.892,35.82 C85.918,35.838 87.124,35.856 88.492,35.856 C89.392,35.856 90.292,35.838 91.228,35.838 C92.146,35.802 92.848,35.766 93.352,35.73 L92.884,37.584 L88.762,37.584 Z M83.308,22.05 L83.308,23.778 L91.804,23.778 L91.804,22.05 L83.308,22.05 Z M82.156,26.1 L93.118,26.1 L93.118,27.882 L87.61,27.882 C86.818,29.862 86.026,31.428 85.234,32.58 C87.124,32.328 88.726,32.04 90.058,31.698 C89.698,30.852 89.302,30.042 88.888,29.268 L90.418,28.764 C91.354,30.42 92.182,32.292 92.902,34.416 L91.228,34.83 C91.048,34.29 90.886,33.786 90.706,33.3 C88.762,33.804 86.242,34.218 83.128,34.542 L82.66,32.904 C83.38,32.688 84.406,31.014 85.738,27.882 L82.156,27.882 L82.156,26.1 Z M98.302,27.72 L107.806,27.72 L107.806,31.662 L98.302,31.662 L98.302,27.72 Z M106.078,30.276 L106.078,29.124 L100.03,29.124 L100.03,30.276 L106.078,30.276 Z M109.48,32.508 L109.48,37.89 L107.662,37.89 L107.662,37.224 L98.518,37.224 L98.518,37.89 L96.682,37.89 L96.682,32.508 L109.48,32.508 Z M98.518,35.64 L107.662,35.64 L107.662,34.056 L98.518,34.056 L98.518,35.64 Z M95.188,22.284 L95.188,23.922 L99.022,23.922 L99.022,24.786 L100.894,24.786 L100.894,23.922 L105.106,23.922 L105.106,24.786 L106.978,24.786 L106.978,23.922 L110.812,23.922 L110.812,22.284 L106.978,22.284 L106.978,21.24 L105.106,21.24 L105.106,22.284 L100.894,22.284 L100.894,21.24 L99.022,21.24 L99.022,22.284 L95.188,22.284 Z M110.506,25.254 L110.506,28.944 L108.706,28.944 L108.706,26.838 L97.294,26.838 L97.294,29.034 L95.494,29.034 L95.494,25.254 L110.506,25.254 Z M120.028,21.222 L121.972,21.222 L121.972,23.364 L128.794,23.364 L128.794,25.2 L121.972,25.2 L121.972,27.396 L126.724,27.396 L126.724,29.052 C125.788,30.924 124.438,32.562 122.674,33.948 C123.448,34.344 124.294,34.722 125.194,35.064 C126.49,35.532 127.84,35.928 129.28,36.252 L128.182,37.926 C126.616,37.512 125.14,37.008 123.736,36.414 C122.764,36 121.882,35.55 121.072,35.064 C119.092,36.27 116.698,37.242 113.908,37.998 L112.828,36.324 C115.42,35.748 117.616,34.974 119.452,33.966 C118.552,33.246 117.76,32.472 117.112,31.626 C116.5,30.834 116.068,30.006 115.798,29.142 L114.592,29.142 L114.592,27.396 L120.028,27.396 L120.028,25.2 L113.206,25.2 L113.206,23.364 L120.028,23.364 L120.028,21.222 Z M121.036,32.976 C122.566,31.878 123.754,30.6 124.6,29.142 L117.652,29.142 C117.976,29.934 118.426,30.654 119.02,31.266 C119.614,31.896 120.28,32.472 121.036,32.976 Z M132.628,37.674 L131.242,37.674 L130.828,35.892 C131.224,35.964 131.62,36 131.98,36 C132.34,36 132.52,35.766 132.52,35.334 L132.52,31.752 C132.016,31.968 131.512,32.184 131.008,32.382 L130.54,30.582 C131.206,30.402 131.872,30.168 132.52,29.898 L132.52,26.136 L130.774,26.136 L130.774,24.318 L132.52,24.318 L132.52,21.258 L134.374,21.258 L134.374,24.318 L135.652,24.318 L135.652,26.136 L134.374,26.136 L134.374,28.998 C134.914,28.692 135.436,28.368 135.94,28.026 L135.94,29.88 C135.418,30.204 134.896,30.528 134.374,30.816 L134.374,35.82 C134.374,37.044 133.78,37.674 132.628,37.674 Z M140.638,21.204 L142.42,21.204 L142.42,23.166 L143.59,23.166 C143.914,22.554 144.184,21.942 144.436,21.294 L146.038,21.852 C145.822,22.32 145.588,22.77 145.336,23.166 L146.974,23.166 L146.974,26.946 L145.228,26.946 L145.228,24.768 L137.794,24.768 L137.794,27 L136.03,27 L136.03,23.166 L137.776,23.166 C137.542,22.752 137.272,22.356 136.984,21.978 L138.532,21.384 C138.838,21.888 139.126,22.482 139.396,23.166 L140.638,23.166 L140.638,21.204 Z M138.154,25.506 L144.886,25.506 L144.886,28.944 L138.154,28.944 L138.154,25.506 Z M143.374,27.648 L143.374,26.838 L139.666,26.838 L139.666,27.648 L143.374,27.648 Z M145.678,29.178 L146.47,30.546 C145.3,30.726 143.95,30.888 142.42,30.996 L142.42,31.842 L146.092,31.842 L146.092,33.246 L142.42,33.246 L142.42,33.93 L147.172,33.93 L147.172,35.442 L142.42,35.442 L142.42,36.054 C142.42,37.206 141.862,37.8 140.764,37.8 L138.964,37.8 L138.604,36.198 C139.144,36.27 139.666,36.306 140.188,36.306 C140.476,36.306 140.638,36.072 140.638,35.64 L140.638,35.442 L135.76,35.442 L135.76,33.93 L140.638,33.93 L140.638,33.246 L136.804,33.246 L136.804,31.842 L140.638,31.842 L140.638,31.086 C139.45,31.122 138.19,31.158 136.858,31.158 L136.39,29.79 C140.044,29.79 143.14,29.574 145.678,29.178 Z M156.388,37.818 L154.336,37.818 L153.904,35.982 C154.534,36.054 155.146,36.108 155.74,36.108 C156.082,36.108 156.262,35.91 156.262,35.532 L156.262,31.716 C154.57,31.824 152.752,31.932 150.772,32.022 L150.25,30.384 C150.844,30.33 151.384,30.222 151.87,30.042 C153.112,29.502 154.498,28.692 156.01,27.594 C154.606,27.702 153.112,27.792 151.564,27.882 L151.186,26.244 C151.636,26.19 152.05,26.082 152.446,25.902 C153.076,25.596 153.85,24.93 154.786,23.886 C153.382,23.922 151.942,23.958 150.43,23.958 L149.89,22.338 C155.038,22.338 159.412,21.996 163.012,21.33 L163.93,22.896 C162.004,23.292 159.736,23.58 157.108,23.76 C156.244,24.768 155.326,25.632 154.372,26.316 C155.56,26.244 156.766,26.154 157.954,26.064 C158.692,25.452 159.448,24.786 160.24,24.066 L161.968,24.912 C159.178,27.306 156.748,29.106 154.696,30.294 C157.036,30.132 159.106,29.952 160.87,29.736 C160.492,29.232 160.096,28.728 159.7,28.224 L161.086,27.36 C162.58,29.106 163.732,30.636 164.524,31.95 L163.03,32.976 C162.706,32.4 162.328,31.824 161.932,31.23 C160.78,31.356 159.52,31.464 158.152,31.572 L158.152,36 C158.152,37.206 157.558,37.818 156.388,37.818 Z M160.564,32.328 C162.328,33.624 163.822,34.902 165.028,36.18 L163.696,37.512 C162.67,36.288 161.212,34.956 159.322,33.534 L160.564,32.328 Z M153.238,32.454 L154.552,33.624 C153.346,35.082 151.852,36.36 150.052,37.44 L148.882,35.91 C150.61,34.92 152.05,33.768 153.238,32.454 Z M172.876,33.372 L172.876,35.154 C171.238,35.982 169.384,36.666 167.296,37.17 L167.062,35.298 C169.276,34.812 171.22,34.164 172.876,33.372 Z M169.636,21.132 L171.436,21.834 C170.608,23.922 169.762,25.614 168.898,26.946 C169.438,26.892 169.978,26.82 170.518,26.73 C170.806,26.154 171.13,25.524 171.472,24.858 L173.146,25.506 C171.742,28.152 170.572,30.114 169.636,31.392 C170.698,31.104 171.778,30.708 172.876,30.222 L172.876,31.95 C170.896,32.778 169.042,33.318 167.296,33.588 L166.792,31.86 C167.134,31.716 167.422,31.536 167.638,31.32 C168.142,30.78 168.79,29.826 169.582,28.458 C168.79,28.566 167.962,28.692 167.134,28.818 L166.666,27.09 C166.954,26.964 167.224,26.73 167.476,26.37 C168.304,24.786 169.024,23.04 169.636,21.132 Z M173.38,29.394 L172.984,27.738 C173.146,27.684 173.272,27.63 173.344,27.594 C173.848,27.198 174.514,26.244 175.324,24.714 L172.642,24.714 L172.642,22.932 L176.962,22.932 C176.764,22.392 176.548,21.87 176.296,21.402 L178.204,21.078 C178.42,21.618 178.636,22.248 178.852,22.932 L182.758,22.932 L182.758,24.714 L177.286,24.714 C176.638,25.938 176.062,26.874 175.558,27.558 C176.926,27.432 178.276,27.252 179.608,27.036 L178.636,25.686 L180.076,24.786 C181.246,26.316 182.146,27.648 182.776,28.782 L181.318,29.808 C181.102,29.412 180.868,28.998 180.616,28.602 C178.402,28.926 175.99,29.196 173.38,29.394 Z M174.658,29.862 L176.494,29.862 C176.386,32.166 176.116,33.84 175.648,34.902 C175.126,36.036 174.262,37.026 173.038,37.854 L171.832,36.342 C172.84,35.694 173.542,34.938 173.956,34.074 C174.352,33.228 174.586,31.824 174.658,29.862 Z M181.318,37.548 L180.22,37.548 C178.87,37.548 178.204,36.954 178.204,35.784 L178.204,29.646 L179.986,29.646 L179.986,35.406 C179.986,35.676 180.076,35.838 180.274,35.892 L181.228,35.892 C181.534,35.856 181.696,35.604 181.732,35.154 C181.768,34.668 181.804,34.002 181.804,33.174 L183.406,33.75 C183.406,35.478 183.262,36.522 183.01,36.918 C182.758,37.278 182.182,37.476 181.318,37.548 Z" id="运营支撑系统" fill="#FFFFFF"></path>
            </g>
        </g>
    </g>
</svg>