<svg aria-hidden="true" style="position: absolute; width: 0; height: 0; overflow: hidden;" version="1.1" xmlns="http://www.w3.org/2000/svg" xmlns:xlink="http://www.w3.org/1999/xlink">
<defs>
<symbol id="icon-ipad" viewBox="0 0 25 32">
<title>ipad</title>
<path d="M14.857 27.657c0 1.262-1.023 2.286-2.286 2.286s-2.286-1.023-2.286-2.286c0-1.262 1.023-2.286 2.286-2.286s2.286 1.023 2.286 2.286z"></path>
<path d="M4.571 2.286c-1.262 0-2.286 1.023-2.286 2.286v22.857c0 1.262 1.023 2.286 2.286 2.286h16c1.262 0 2.286-1.023 2.286-2.286v-22.857c0-1.262-1.023-2.286-2.286-2.286h-16zM4.571 0h16c2.525 0 4.571 2.047 4.571 4.571v22.857c0 2.525-2.047 4.571-4.571 4.571h-16c-2.525 0-4.571-2.047-4.571-4.571v-22.857c0-2.525 2.047-4.571 4.571-4.571z"></path>
<path d="M5.714 21.714v-14.857c0-0.631 0.512-1.143 1.143-1.143h11.429c0.631 0 1.143 0.512 1.143 1.143v14.857c0 0.631-0.512 1.143-1.143 1.143h-9.038c-0.631 0-1.143 0.512-1.143 1.143s0.512 1.143 1.143 1.143h9.038c1.894 0 3.429-1.535 3.429-3.429v-14.857c0-1.894-1.535-3.429-3.429-3.429h-11.429c-1.894 0-3.429 1.535-3.429 3.429v14.857c0 0.631 0.512 1.143 1.143 1.143s1.143-0.512 1.143-1.143z"></path>
</symbol>
<symbol id="icon-call-out" viewBox="0 0 30 32">
<title>call-out</title>
<path d="M2.619 9.957c-0.472 0.396-0.545 1.096-0.165 1.581 2.174 2.773 4.388 5.502 6.643 8.189 2.223 2.65 4.432 5.194 6.626 7.632 0.412 0.458 1.112 0.507 1.584 0.111 0.807-0.677 0.807-0.677 1.8-1.51 0.126-0.11 0.126-0.11 0.248-0.217 2.265-1.975 2.339-2.19 0.965-3.827-1.722-2.052-1.627-2.056-4.391 0.233l-0.774 0.641-0.735-0.686c-1.255-1.172-2.112-2.125-3.703-4.026l-0.069-0.083c-0.396-0.474-0.573-0.685-0.791-0.951-0.989-1.202-1.71-2.162-2.425-3.269l-0.547-0.846 0.771-0.648c2.355-1.981 2.468-2.501 0.865-4.426-1.246-1.485-1.73-1.382-3.771 0.316-0.151 0.126-0.151 0.126-0.306 0.254-0.007 0.006-0.616 0.517-1.827 1.533zM22.072 20.447c2.381 2.837 1.867 4.332-1.214 7.019-0.122 0.107-0.122 0.107-0.264 0.23l-1.817 1.525c-1.415 1.188-3.517 1.040-4.753-0.333-2.212-2.458-4.438-5.022-6.678-7.692-2.27-2.706-4.501-5.455-6.69-8.247-1.141-1.455-0.923-3.553 0.494-4.742 0.898-0.753 0.898-0.753 1.823-1.529 0.168-0.138 0.168-0.138 0.317-0.263 2.881-2.398 4.675-2.781 6.987-0.026 2.29 2.749 2.138 4.585-0.377 6.958 0.499 0.714 1.041 1.414 1.725 2.245 0.213 0.259 0.387 0.467 0.779 0.936l0.069 0.083c1.206 1.441 1.962 2.304 2.798 3.137 3.059-2.369 4.377-2.192 6.803 0.698z"></path>
<path d="M20.283 8.315l1.047-0.711-1.762-2.1 6.824-0.958-2.129 6.554-0.864-1.030c-0.406-0.483-1.127-0.547-1.61-0.141s-0.547 1.127-0.141 1.61l1.659 1.977c0.193 0.23 0.446 0.401 0.731 0.493 0.84 0.273 1.743-0.187 2.016-1.027l2.85-8.774c0.075-0.231 0.096-0.476 0.063-0.717-0.123-0.875-0.932-1.485-1.807-1.362l-9.136 1.283c-0.297 0.042-0.576 0.166-0.806 0.359-0.677 0.568-0.765 1.577-0.197 2.254l0.93 1.109-3.529 2.396c-0.77 0.638-0.858 1.647-0.29 2.324l2.295 2.735c0.406 0.483 1.127 0.547 1.61 0.141s0.547-1.127 0.141-1.61l-1.809-2.156 3.912-2.65z"></path>
</symbol>
<symbol id="icon-client" viewBox="0 0 32 32">
<title>client</title>
<path d="M23.188 16.497c0-6.586-5.191-11.925-11.594-11.925s-11.594 5.339-11.594 11.925c0 3.052 1.122 5.921 3.083 8.099-1.24 1.794-1.924 3.949-1.924 6.212 0 0.659 0.519 1.193 1.159 1.193s1.159-0.534 1.159-1.193c0-2.063 0.729-4.006 2.029-5.521l0.762-0.888-0.858-0.79c-1.955-1.8-3.092-4.36-3.092-7.111 0-5.269 4.153-9.54 9.275-9.54s9.275 4.271 9.275 9.54c0 2.752-1.137 5.312-3.092 7.111l-0.858 0.79 0.762 0.888c1.3 1.515 2.029 3.458 2.029 5.521 0 0.659 0.519 1.193 1.159 1.193s1.159-0.534 1.159-1.193c0-2.263-0.684-4.418-1.924-6.212 1.961-2.178 3.083-5.047 3.083-8.099z"></path>
<path d="M15.154 20.143l-0.822-0.757zM20.255 3.42c0.001 0.003 0.001 0.006 0.002 0.009 4.909 0 8.889 4.093 8.889 9.143 0 2.637-1.090 5.090-2.963 6.815l-0.822 0.757 0.73 0.851c1.246 1.452 1.944 3.314 1.944 5.291 0 0.631 0.497 1.143 1.111 1.143s1.111-0.512 1.111-1.143c0-2.168-0.656-4.234-1.844-5.953 1.879-2.087 2.955-4.836 2.955-7.761 0-6.312-4.975-11.429-11.111-11.429-0.016 0-0.032 0.001-0.047 0.004-0.032-0.003-0.064-0.004-0.096-0.004-0.631 0-1.143 0.512-1.143 1.143s0.512 1.143 1.143 1.143c0.048 0 0.095-0.003 0.141-0.009z"></path>
<path d="M6.673 19.647c0.877 2.071 2.877 3.446 5.129 3.446 2.286 0 4.31-1.416 5.166-3.533 0.236-0.585-0.046-1.251-0.632-1.488s-1.251 0.046-1.488 0.632c-0.512 1.267-1.708 2.104-3.046 2.104-1.319 0-2.5-0.812-3.025-2.051-0.246-0.581-0.917-0.853-1.498-0.607s-0.853 0.917-0.607 1.498z"></path>
</symbol>
<symbol id="icon-consulting" viewBox="0 0 32 32">
<title>consulting</title>
<path d="M2.286 12v5.714c0 0.316 0.256 0.571 0.571 0.571s0.571-0.256 0.571-0.571v-5.714c0-0.316-0.256-0.571-0.571-0.571s-0.571 0.256-0.571 0.571zM2.857 9.143c1.578 0 2.857 1.279 2.857 2.857v5.714c0 1.578-1.279 2.857-2.857 2.857s-2.857-1.279-2.857-2.857v-5.714c0-1.578 1.279-2.857 2.857-2.857z"></path>
<path d="M29.143 11.429c-0.316 0-0.571 0.256-0.571 0.571v5.714c0 0.316 0.256 0.571 0.571 0.571s0.571-0.256 0.571-0.571v-5.714c0-0.316-0.256-0.571-0.571-0.571zM29.143 9.143c1.578 0 2.857 1.279 2.857 2.857v5.714c0 1.578-1.279 2.857-2.857 2.857s-2.857-1.279-2.857-2.857v-5.714c0-1.578 1.279-2.857 2.857-2.857z"></path>
<path d="M18.286 30.857c-1.894 0-3.429-1.535-3.429-3.429s1.535-3.429 3.429-3.429c0.82 0 1.599 0.291 2.213 0.81 0.765 0.647 1.216 1.597 1.216 2.619 0 1.894-1.535 3.429-3.429 3.429zM18.286 28.571c0.631 0 1.143-0.512 1.143-1.143 0-0.342-0.149-0.657-0.406-0.873-0.205-0.173-0.462-0.269-0.737-0.269-0.631 0-1.143 0.512-1.143 1.143s0.512 1.143 1.143 1.143z"></path>
<path d="M20.716 28.42c4.972-0.544 7.989-5.724 7.856-14.722-0.314-8.104-5.156-12.555-12.571-12.555-6.943 0-12.571 5.628-12.571 12.571 0 0.631 0.512 1.143 1.143 1.143s1.143-0.512 1.143-1.143c0-5.681 4.605-10.286 10.286-10.286 6.21 0 10.021 3.504 10.287 10.33 0.117 7.93-2.253 11.998-5.82 12.389-0.627 0.069-1.080 0.633-1.012 1.261s0.633 1.080 1.261 1.012z"></path>
<path d="M10.060 17.25c1.021 2.345 3.339 3.893 5.94 3.893 2.641 0 4.986-1.595 5.983-3.993 0.242-0.583-0.034-1.252-0.617-1.494s-1.252 0.034-1.494 0.617c-0.645 1.552-2.163 2.584-3.872 2.584-1.684 0-3.184-1.002-3.845-2.52-0.252-0.579-0.925-0.844-1.504-0.592s-0.844 0.925-0.592 1.504z"></path>
</symbol>
<symbol id="icon-contract" viewBox="0 0 32 32">
<title>contract</title>
<path d="M9.21 28.571h-3.496c-1.262 0-2.286-1.023-2.286-2.286v-20.571c0-1.262 1.023-2.286 2.286-2.286h16c1.262 0 2.286 1.023 2.286 2.286v2.189c0 0.631 0.512 1.143 1.143 1.143s1.143-0.512 1.143-1.143v-2.189c0-2.525-2.047-4.571-4.571-4.571h-16c-2.525 0-4.571 2.047-4.571 4.571v20.571c0 2.525 2.047 4.571 4.571 4.571h3.496c0.631 0 1.143-0.512 1.143-1.143s-0.512-1.143-1.143-1.143z"></path>
<path d="M21.714 32c-5.681 0-10.286-4.605-10.286-10.286s4.605-10.286 10.286-10.286c5.681 0 10.286 4.605 10.286 10.286s-4.605 10.286-10.286 10.286zM21.714 29.714c4.418 0 8-3.582 8-8s-3.582-8-8-8c-4.418 0-8 3.582-8 8s3.582 8 8 8z"></path>
<path d="M8 9.143h11.429c0.631 0 1.143-0.512 1.143-1.143s-0.512-1.143-1.143-1.143h-11.429c-0.631 0-1.143 0.512-1.143 1.143s0.512 1.143 1.143 1.143z"></path>
<path d="M8 16h2.286c0.631 0 1.143-0.512 1.143-1.143s-0.512-1.143-1.143-1.143h-2.286c-0.631 0-1.143 0.512-1.143 1.143s0.512 1.143 1.143 1.143z"></path>
<path d="M21.512 23.866h0.404l1.593 0.319 0.189-1.614 0.125-0.384 0.796-1.417-1.477-0.679-0.327-0.237-1.102-1.195-1.102 1.195-0.327 0.237-1.477 0.679 0.796 1.417 0.125 0.384 0.189 1.614 1.593-0.319zM19.715 26.324c-0.805 0.161-1.587-0.361-1.748-1.165-0.011-0.059-0.011-0.059-0.019-0.119l-0.237-2.025-0.998-1.778c-0.402-0.715-0.147-1.621 0.568-2.023 0.053-0.029 0.053-0.029 0.107-0.055l1.852-0.851 1.382-1.499c0.556-0.603 1.496-0.641 2.099-0.085 0.044 0.041 0.044 0.041 0.085 0.085l1.382 1.499 1.852 0.851c0.746 0.343 1.072 1.225 0.729 1.97-0.026 0.054-0.026 0.054-0.055 0.107l-0.998 1.778-0.237 2.025c-0.096 0.815-0.834 1.398-1.649 1.303-0.060-0.008-0.060-0.008-0.119-0.019l-1.999-0.4-1.999 0.4z"></path>
</symbol>
<symbol id="icon-courses" viewBox="0 0 27 32">
<title>courses</title>
<path d="M3.429 22.815v-17.1c0-1.262 1.023-2.286 2.286-2.286h16c1.262 0 2.286 1.023 2.286 2.286v20.571c0 1.262-1.023 2.286-2.286 2.286h-12.771c-0.631 0-1.143 0.512-1.143 1.143s0.512 1.143 1.143 1.143h12.771c2.525 0 4.571-2.047 4.571-4.571v-20.571c0-2.525-2.047-4.571-4.571-4.571h-16c-2.525 0-4.571 2.047-4.571 4.571v17.1c0 0.631 0.512 1.143 1.143 1.143s1.143-0.512 1.143-1.143z"></path>
<path d="M19.429 3.429h-4.571v10.529l2.286-2.258 2.286 2.258v-10.529zM12.571 1.143h9.143v18.286l-4.571-4.516-4.571 4.516v-18.286z"></path>
</symbol>
<symbol id="icon-examine" viewBox="0 0 32 32">
<title>examine</title>
<path d="M21.488 14.963c1.592-1.501 2.512-3.589 2.512-5.82 0-4.418-3.582-8-8-8s-8 3.582-8 8c0 2.259 0.943 4.37 2.569 5.874 0.463 0.429 1.186 0.4 1.615-0.063s0.4-1.186-0.063-1.615c-1.163-1.076-1.835-2.581-1.835-4.196 0-3.156 2.558-5.714 5.714-5.714s5.714 2.558 5.714 5.714c0 1.596-0.656 3.084-1.794 4.158-0.459 0.433-0.48 1.156-0.047 1.616s1.156 0.48 1.616 0.047z"></path>
<path d="M10.191 19.884l2.286-5.257c0.252-0.579-0.014-1.252-0.592-1.504s-1.252 0.014-1.504 0.592l-2.286 5.257c-0.252 0.579 0.014 1.252 0.592 1.504s1.252-0.014 1.504-0.592z"></path>
<path d="M22.738 20.571h3.548c1.262 0 2.286 1.023 2.286 2.286s-1.023 2.286-2.286 2.286h-20.571c-1.262 0-2.286-1.023-2.286-2.286s1.023-2.286 2.286-2.286h3.383c0.631 0 1.143-0.512 1.143-1.143s-0.512-1.143-1.143-1.143h-3.383c-2.525 0-4.571 2.047-4.571 4.571s2.047 4.571 4.571 4.571h20.571c2.525 0 4.571-2.047 4.571-4.571s-2.047-4.571-4.571-4.571h-3.548c-0.631 0-1.143 0.512-1.143 1.143s0.512 1.143 1.143 1.143z"></path>
<path d="M1.143 32h29.714c0.631 0 1.143-0.512 1.143-1.143s-0.512-1.143-1.143-1.143h-29.714c-0.631 0-1.143 0.512-1.143 1.143s0.512 1.143 1.143 1.143z"></path>
</symbol>
<symbol id="icon-feedback" viewBox="0 0 27 32">
<title>feedback</title>
<path d="M3.513 30.732c0.224-0.068 1.445-0.444 1.748-0.536 0.905-0.277 1.704-0.517 2.487-0.746 0.291-0.085 0.574-0.167 0.849-0.245 2.478-0.707 4.264-1.126 4.871-1.126 7.438 0 13.468-6.030 13.468-13.468s-6.030-13.468-13.468-13.468c-7.438 0-13.468 6.030-13.468 13.468 0 3.705 1.505 7.172 4.118 9.694 0.454 0.438 1.178 0.425 1.616-0.029s0.425-1.178-0.029-1.616c-2.172-2.095-3.42-4.971-3.42-8.049 0-6.176 5.006-11.182 11.182-11.182s11.182 5.006 11.182 11.182c0 6.176-5.006 11.182-11.182 11.182-0.917 0-2.756 0.431-5.498 1.214-0.28 0.080-0.568 0.163-0.863 0.25-0.793 0.232-1.6 0.475-2.514 0.754-0.307 0.094-1.524 0.468-1.742 0.534-0.604 0.183-0.945 0.821-0.762 1.425s0.821 0.945 1.425 0.762z"></path>
<path d="M13.371 7.2c-1.522 0-2.715 0.432-3.6 1.296-0.905 0.864-1.337 2.057-1.337 3.579 0.25 0.528 0.655 0.793 1.215 0.793s0.936-0.264 1.13-0.793c0-0.864 0.165-1.543 0.514-2.016 0.391-0.576 1.029-0.843 1.934-0.843 0.699 0 1.255 0.185 1.646 0.576 0.37 0.391 0.576 0.926 0.576 1.605 0 0.514-0.185 1.008-0.555 1.461l-0.247 0.288c-1.337 1.193-2.139 2.057-2.407 2.613-0.288 0.555-0.411 1.234-0.411 2.016v0.288c0.256 0.323 0.645 0.481 1.169 0.474s0.923-0.165 1.197-0.474v-0.288c0-0.494 0.103-0.926 0.309-1.337 0.185-0.37 0.453-0.72 0.823-1.029 0.987-0.864 1.584-1.419 1.769-1.625 0.494-0.658 0.761-1.502 0.761-2.53 0-1.255-0.411-2.242-1.234-2.962-0.823-0.741-1.913-1.090-3.25-1.090zM12.992 19.433c-0.453 0-0.823 0.144-1.131 0.432s-0.453 0.658-0.453 1.111c0 0.453 0.144 0.823 0.453 1.111s0.679 0.453 1.131 0.453c0.453 0 0.823-0.144 1.131-0.432s0.473-0.679 0.473-1.131c0-0.453-0.165-0.823-0.453-1.111-0.309-0.288-0.699-0.432-1.152-0.432z"></path>
</symbol>
<symbol id="icon-finance" viewBox="0 0 32 32">
<title>finance</title>
<path d="M3.273 23.669c-1.386-2.296-2.13-4.929-2.13-7.669 0-8.205 6.652-14.857 14.857-14.857s14.857 6.652 14.857 14.857c0 8.205-6.652 14.857-14.857 14.857-2.196 0-4.327-0.477-6.275-1.387-0.572-0.267-0.819-0.947-0.552-1.519s0.947-0.819 1.519-0.552c1.647 0.769 3.448 1.172 5.309 1.172 6.943 0 12.571-5.628 12.571-12.571s-5.628-12.571-12.571-12.571c-6.943 0-12.571 5.628-12.571 12.571 0 2.32 0.628 4.545 1.801 6.487 0.326 0.54 0.153 1.243-0.388 1.569s-1.243 0.153-1.569-0.388z"></path>
<path d="M11.549 8.511l2.286 4.571c0.282 0.565 0.969 0.793 1.533 0.511s0.793-0.969 0.511-1.533l-2.286-4.571c-0.282-0.565-0.969-0.793-1.533-0.511s-0.793 0.969-0.511 1.533z"></path>
<path d="M20.451 8.511l-2.286 4.571c-0.282 0.565-0.969 0.793-1.533 0.511s-0.793-0.969-0.511-1.533l2.286-4.571c0.282-0.565 0.969-0.793 1.533-0.511s0.793 0.969 0.511 1.533z"></path>
<path d="M10.286 14.857h11.429c0.631 0 1.143-0.512 1.143-1.143s-0.512-1.143-1.143-1.143h-11.429c-0.631 0-1.143 0.512-1.143 1.143s0.512 1.143 1.143 1.143z"></path>
<path d="M10.286 19.429h11.429c0.631 0 1.143-0.512 1.143-1.143s-0.512-1.143-1.143-1.143h-11.429c-0.631 0-1.143 0.512-1.143 1.143s0.512 1.143 1.143 1.143z"></path>
<path d="M14.857 13.714v11.429c0 0.631 0.512 1.143 1.143 1.143s1.143-0.512 1.143-1.143v-11.429c0-0.631-0.512-1.143-1.143-1.143s-1.143 0.512-1.143 1.143z"></path>
</symbol>
<symbol id="icon-front-desk" viewBox="0 0 27 32">
<title>front-desk</title>
<path d="M27.048 14.667c0-7.364-5.97-13.333-13.333-13.333s-13.333 5.97-13.333 13.333c0 3.413 1.291 6.62 3.546 9.055-1.426 2.005-2.213 4.415-2.213 6.945 0 0.736 0.597 1.333 1.333 1.333s1.333-0.597 1.333-1.333c0-2.307 0.838-4.479 2.333-6.173l0.876-0.993-0.987-0.883c-2.248-2.012-3.556-4.875-3.556-7.951 0-5.891 4.776-10.667 10.667-10.667s10.667 4.776 10.667 10.667c0 3.076-1.308 5.939-3.556 7.951l-0.987 0.883 0.876 0.993c1.495 1.694 2.333 3.867 2.333 6.173 0 0.736 0.597 1.333 1.333 1.333s1.333-0.597 1.333-1.333c0-2.53-0.787-4.94-2.213-6.945 2.255-2.435 3.546-5.642 3.546-9.055z"></path>
<path d="M7.774 17.25c1.021 2.345 3.339 3.893 5.94 3.893 2.641 0 4.986-1.595 5.983-3.993 0.242-0.583-0.034-1.252-0.617-1.494s-1.252 0.034-1.494 0.617c-0.645 1.552-2.163 2.584-3.872 2.584-1.684 0-3.184-1.002-3.845-2.52-0.252-0.579-0.925-0.844-1.504-0.592s-0.844 0.925-0.592 1.504z"></path>
</symbol>
<symbol id="icon-information" viewBox="0 0 34 32">
<title>information</title>
<path d="M12.502 24.475l-6.354 5.029c-0.495 0.392-0.579 1.11-0.187 1.605s1.11 0.579 1.605 0.187l6.354-5.029c0.495-0.392 0.579-1.11 0.187-1.605s-1.11-0.579-1.605-0.187z"></path>
<path d="M5.714 24c-1.262 0-2.286-1.023-2.286-2.286v-9.143c0-1.262 1.023-2.286 2.286-2.286h18.286c1.262 0 2.286 1.023 2.286 2.286v9.143c0 1.262-1.023 2.286-2.286 2.286h-10.501c-0.631 0-1.143 0.512-1.143 1.143s0.512 1.143 1.143 1.143h10.501c2.525 0 4.571-2.047 4.571-4.571v-9.143c0-2.525-2.047-4.571-4.571-4.571h-18.286c-2.525 0-4.571 2.047-4.571 4.571v9.143c0 2.525 2.047 4.571 4.571 4.571 0.631 0 1.143-0.512 1.143-1.143s-0.512-1.143-1.143-1.143z"></path>
<path d="M8 9.146v-2.288c0-1.894 1.535-3.429 3.429-3.429h16c1.894 0 3.429 1.535 3.429 3.429v9.143c0 1.894-1.535 3.429-3.429 3.429v2.286c3.156 0 5.714-2.558 5.714-5.714v-9.143c0-3.156-2.558-5.714-5.714-5.714h-16c-3.156 0-5.714 2.558-5.714 5.714v2.288h2.286z"></path>
</symbol>
<symbol id="icon-monitoring" viewBox="0 0 32 32">
<title>monitoring</title>
<path d="M7.048 22.857h-0.191c-1.894 0-3.429-1.535-3.429-3.429v-12.571c0-1.894 1.535-3.429 3.429-3.429h18.286c1.894 0 3.429 1.535 3.429 3.429v12.571c0 1.894-1.535 3.429-3.429 3.429h-9.17c-0.631 0-1.143 0.512-1.143 1.143s0.512 1.143 1.143 1.143h9.17c3.156 0 5.714-2.558 5.714-5.714v-12.571c0-3.156-2.558-5.714-5.714-5.714h-18.286c-3.156 0-5.714 2.558-5.714 5.714v12.571c0 3.156 2.558 5.714 5.714 5.714h0.191c0.631 0 1.143-0.512 1.143-1.143s-0.512-1.143-1.143-1.143z"></path>
<path d="M16.769 19.771l4.428-5.433h6.195v-2.286h-7.281l-2.924 3.587-5.017-9.59-2.777 6.314h-4.823v2.286h6.314l1.463-3.327z"></path>
<path d="M14.857 24v6.857c0 0.631 0.512 1.143 1.143 1.143s1.143-0.512 1.143-1.143v-6.857c0-0.631-0.512-1.143-1.143-1.143s-1.143 0.512-1.143 1.143z"></path>
<path d="M8 32h16c0.631 0 1.143-0.512 1.143-1.143s-0.512-1.143-1.143-1.143h-16c-0.631 0-1.143 0.512-1.143 1.143s0.512 1.143 1.143 1.143z"></path>
</symbol>
<symbol id="icon-networks" viewBox="0 0 41 32">
<title>networks</title>
<path d="M16.583 3.559c-0.17 2.129 0.536 3.853 2.109 4.967 1.136 0.804 1.968 0.929 3.149 0.736 0.062-0.010 0.062-0.010 0.115-0.019 0.249-0.039 0.278-0.036 0.404 0.032 0.159 0.085 0.395 0.42 0.846 1.277l0.079 0.15c0.796 1.511 1.276 2.176 2.257 2.659 2.398 1.179 6.554-0.186 7.804-3.051l-2.666-1.164c-0.568 1.302-2.906 2.070-3.854 1.604-0.212-0.104-0.473-0.466-0.967-1.405l-0.079-0.15c-0.74-1.404-1.169-2.013-2.042-2.483-0.769-0.414-1.41-0.472-2.23-0.344-0.072 0.011-0.072 0.011-0.136 0.022-0.489 0.080-0.565 0.068-1-0.24-0.688-0.487-0.982-1.206-0.89-2.362l-2.9-0.231z"></path>
<path d="M24.037 27.566c0.17-2.129-0.536-3.853-2.109-4.967-1.136-0.804-1.968-0.929-3.149-0.736-0.062 0.010-0.062 0.010-0.115 0.019-0.249 0.039-0.278 0.036-0.404-0.032-0.159-0.085-0.395-0.42-0.846-1.277l-0.079-0.15c-0.796-1.511-1.276-2.176-2.257-2.659-2.398-1.179-6.554 0.186-7.804 3.051l2.666 1.164c0.568-1.302 2.906-2.070 3.854-1.604 0.212 0.104 0.473 0.466 0.967 1.405l0.079 0.15c0.74 1.404 1.169 2.013 2.042 2.483 0.769 0.414 1.41 0.472 2.23 0.344 0.072-0.011 0.072-0.011 0.136-0.022 0.489-0.080 0.565-0.068 1 0.24 0.688 0.487 0.982 1.206 0.89 2.362l2.9 0.231z"></path>
<path d="M20.364 30.545c-8.033 0-14.545-6.512-14.545-14.545s6.512-14.545 14.545-14.545c8.033 0 14.545 6.512 14.545 14.545s-6.512 14.545-14.545 14.545zM20.364 27.636c6.427 0 11.636-5.21 11.636-11.636s-5.21-11.636-11.636-11.636c-6.427 0-11.636 5.21-11.636 11.636s5.21 11.636 11.636 11.636z"></path>
<path d="M2.927 16.875c-2.435 1.668-3.106 3.758-2.304 5.963 1.61 4.424 11.52 4.011 22.516 0.008s18.854-10.056 17.243-14.479c-0.788-2.165-3.455-3.54-6.373-3.11-0.795 0.117-1.344 0.856-1.227 1.651s0.856 1.344 1.651 1.227c1.62-0.239 2.928 0.435 3.216 1.227 0.753 2.068-6.052 7.311-15.505 10.751s-18.035 3.798-18.788 1.731c-0.348-0.957-0.126-1.65 1.214-2.568 0.663-0.454 0.832-1.359 0.378-2.022s-1.359-0.832-2.022-0.378z"></path>
</symbol>
<symbol id="icon-news" viewBox="0 0 34 32">
<title>news</title>
<path d="M2.462 13.949v3.149l4.923 1.641v-6.431l-4.923 1.641zM6.606 9.973c1.29-0.43 2.684 0.267 3.114 1.557 0.084 0.251 0.126 0.514 0.126 0.778v6.431c0 1.359-1.102 2.462-2.462 2.462-0.265 0-0.527-0.043-0.778-0.126l-4.923-1.641c-1.005-0.335-1.683-1.276-1.683-2.335v-3.149c0-1.060 0.678-2 1.683-2.335l4.923-1.641z"></path>
<path d="M9.846 8.37v13.376l9.846 5.908v-25.191l-9.846 5.908zM8.58 6.259l9.846-5.908c1.166-0.699 2.678-0.321 3.377 0.844 0.23 0.383 0.351 0.82 0.351 1.266v25.191c0 1.359-1.102 2.462-2.462 2.462-0.446 0-0.884-0.121-1.266-0.351l-9.846-5.908c-0.741-0.445-1.195-1.246-1.195-2.111v-13.376c0-0.865 0.454-1.666 1.195-2.111z"></path>
<path d="M25.846 22.154c4.078 0 7.385-3.306 7.385-7.385s-3.306-7.385-7.385-7.385c-0.68 0-1.231 0.551-1.231 1.231s0.551 1.231 1.231 1.231c2.719 0 4.923 2.204 4.923 4.923s-2.204 4.923-4.923 4.923c-0.68 0-1.231 0.551-1.231 1.231s0.551 1.231 1.231 1.231z"></path>
</symbol>
<symbol id="icon-personnel" viewBox="0 0 27 32">
<title>personnel</title>
<path d="M27.048 14.667c0-7.364-5.97-13.333-13.333-13.333s-13.333 5.97-13.333 13.333c0 3.413 1.291 6.62 3.546 9.055-1.426 2.005-2.213 4.415-2.213 6.945 0 0.736 0.597 1.333 1.333 1.333s1.333-0.597 1.333-1.333c0-2.307 0.838-4.479 2.333-6.173l0.876-0.993-0.987-0.883c-2.248-2.012-3.556-4.875-3.556-7.951 0-5.891 4.776-10.667 10.667-10.667s10.667 4.776 10.667 10.667c0 3.076-1.308 5.939-3.556 7.951l-0.987 0.883 0.876 0.993c1.495 1.694 2.333 3.867 2.333 6.173 0 0.736 0.597 1.333 1.333 1.333s1.333-0.597 1.333-1.333c0-2.53-0.787-4.94-2.213-6.945 2.255-2.435 3.546-5.642 3.546-9.055z"></path>
<path d="M7.774 17.25c1.021 2.345 3.339 3.893 5.94 3.893 2.641 0 4.986-1.595 5.983-3.993 0.242-0.583-0.034-1.252-0.617-1.494s-1.252 0.034-1.494 0.617c-0.645 1.552-2.163 2.584-3.872 2.584-1.684 0-3.184-1.002-3.845-2.52-0.252-0.579-0.925-0.844-1.504-0.592s-0.844 0.925-0.592 1.504z"></path>
<path d="M5.33 24.647c2.479 1.744 5.055 2.669 7.71 2.754 3.724 0.12 7.633-1.141 9.255-2.919 0.425-0.466 0.392-1.189-0.075-1.615s-1.189-0.392-1.615 0.075c-1.114 1.221-4.38 2.274-7.492 2.175-2.19-0.070-4.34-0.843-6.468-2.339-0.516-0.363-1.229-0.239-1.592 0.277s-0.239 1.229 0.277 1.592z"></path>
<path d="M19.465 31.384c1.044-0.298 1.871-1.228 2.599-2.718 0.326-0.667 0.764-1.887 1.336-3.701l-2.18-0.687c-0.538 1.709-0.949 2.851-1.21 3.385-0.47 0.963-0.9 1.446-1.172 1.523-0.508 0.145-1.765-0.768-3.49-3.017l-0.76-0.99-0.92 0.844c-2.475 2.271-4.175 3.287-4.648 3.159-0.412-0.112-1.143-1.73-1.737-4.779l-2.244 0.437c0.769 3.946 1.744 6.104 3.383 6.548 1.418 0.384 3.269-0.598 5.882-2.868 1.935 2.293 3.59 3.312 5.16 2.864z"></path>
</symbol>
<symbol id="icon-products" viewBox="0 0 32 32">
<title>products</title>
<path d="M24 19.429c2.525 0 4.571 2.047 4.571 4.571s-2.047 4.571-4.571 4.571c-2.525 0-4.571-2.047-4.571-4.571v-5.714c0-0.631-0.512-1.143-1.143-1.143s-1.143 0.512-1.143 1.143v5.714c0 3.787 3.070 6.857 6.857 6.857s6.857-3.070 6.857-6.857-3.070-6.857-6.857-6.857c-0.631 0-1.143 0.512-1.143 1.143s0.512 1.143 1.143 1.143z"></path>
<path d="M19.429 12.571v-4.571c0-2.525 2.047-4.571 4.571-4.571s4.571 2.047 4.571 4.571c0 2.525-2.047 4.571-4.571 4.571h-4.571zM17.143 14.857h6.857c3.787 0 6.857-3.070 6.857-6.857s-3.070-6.857-6.857-6.857c-3.787 0-6.857 3.070-6.857 6.857v6.857z"></path>
<path d="M12.571 24c0 2.525-2.047 4.571-4.571 4.571s-4.571-2.047-4.571-4.571c0-2.525 2.047-4.571 4.571-4.571h4.571v4.571zM14.857 17.143h-6.857c-3.787 0-6.857 3.070-6.857 6.857s3.070 6.857 6.857 6.857c3.787 0 6.857-3.070 6.857-6.857v-6.857z"></path>
<path d="M12.571 12.571v-4.571c0-2.525-2.047-4.571-4.571-4.571s-4.571 2.047-4.571 4.571c0 2.525 2.047 4.571 4.571 4.571h4.571zM14.857 14.857h-6.857c-3.787 0-6.857-3.070-6.857-6.857s3.070-6.857 6.857-6.857c3.787 0 6.857 3.070 6.857 6.857v6.857z"></path>
</symbol>
<symbol id="icon-report" viewBox="0 0 27 32">
<title>report</title>
<path d="M3.429 22.815v-17.1c0-1.262 1.023-2.286 2.286-2.286h16c1.262 0 2.286 1.023 2.286 2.286v20.571c0 1.262-1.023 2.286-2.286 2.286h-12.771c-0.631 0-1.143 0.512-1.143 1.143s0.512 1.143 1.143 1.143h12.771c2.525 0 4.571-2.047 4.571-4.571v-20.571c0-2.525-2.047-4.571-4.571-4.571h-16c-2.525 0-4.571 2.047-4.571 4.571v17.1c0 0.631 0.512 1.143 1.143 1.143s1.143-0.512 1.143-1.143z"></path>
<path d="M8 9.143h4.571c0.631 0 1.143-0.512 1.143-1.143s-0.512-1.143-1.143-1.143h-4.571c-0.631 0-1.143 0.512-1.143 1.143s0.512 1.143 1.143 1.143z"></path>
<path d="M8 16h6.857c0.631 0 1.143-0.512 1.143-1.143s-0.512-1.143-1.143-1.143h-6.857c-0.631 0-1.143 0.512-1.143 1.143s0.512 1.143 1.143 1.143z"></path>
<path d="M8 22.857h11.429c0.631 0 1.143-0.512 1.143-1.143s-0.512-1.143-1.143-1.143h-11.429c-0.631 0-1.143 0.512-1.143 1.143s0.512 1.143 1.143 1.143z"></path>
</symbol>
<symbol id="icon-stock" viewBox="0 0 32 32">
<title>stock</title>
<path d="M12.571 2.286c-1.262 0-2.286 1.023-2.286 2.286v5.714c0 1.262 1.023 2.286 2.286 2.286h5.714c1.262 0 2.286-1.023 2.286-2.286v-5.714c0-1.262-1.023-2.286-2.286-2.286h-5.714zM12.571 0h5.714c2.525 0 4.571 2.047 4.571 4.571v5.714c0 2.525-2.047 4.571-4.571 4.571h-5.714c-2.525 0-4.571-2.047-4.571-4.571v-5.714c0-2.525 2.047-4.571 4.571-4.571z"></path>
<path d="M2.286 24.012v-3.44c0-1.262 1.023-2.286 2.286-2.286h5.714c1.262 0 2.286 1.023 2.286 2.286v5.714c0 1.262-1.023 2.286-2.286 2.286h-2.273c-0.631 0-1.143 0.512-1.143 1.143s0.512 1.143 1.143 1.143h2.273c2.525 0 4.571-2.047 4.571-4.571v-5.714c0-2.525-2.047-4.571-4.571-4.571h-5.714c-2.525 0-4.571 2.047-4.571 4.571v3.44c0 0.631 0.512 1.143 1.143 1.143s1.143-0.512 1.143-1.143z"></path>
<path d="M21.714 18.286c-1.262 0-2.286 1.023-2.286 2.286v5.714c0 1.262 1.023 2.286 2.286 2.286h5.714c1.262 0 2.286-1.023 2.286-2.286v-5.714c0-1.262-1.023-2.286-2.286-2.286h-5.714zM21.714 16h5.714c2.525 0 4.571 2.047 4.571 4.571v5.714c0 2.525-2.047 4.571-4.571 4.571h-5.714c-2.525 0-4.571-2.047-4.571-4.571v-5.714c0-2.525 2.047-4.571 4.571-4.571z"></path>
<path d="M14.857 3.657h-2.286c-0.505 0-0.914 0.409-0.914 0.914s0.409 0.914 0.914 0.914h2.286c0.505 0 0.914-0.409 0.914-0.914s-0.409-0.914-0.914-0.914z"></path>
<path d="M11.429 4.571v2.286c0 0.505 0.409 0.914 0.914 0.914s0.914-0.409 0.914-0.914v-2.286c0-0.505-0.409-0.914-0.914-0.914s-0.914 0.409-0.914 0.914z"></path>
<path d="M6.857 19.657h-2.286c-0.505 0-0.914 0.409-0.914 0.914s0.409 0.914 0.914 0.914h2.286c0.505 0 0.914-0.409 0.914-0.914s-0.409-0.914-0.914-0.914z"></path>
<path d="M3.657 20.571v2.286c0 0.505 0.409 0.914 0.914 0.914s0.914-0.409 0.914-0.914v-2.286c0-0.505-0.409-0.914-0.914-0.914s-0.914 0.409-0.914 0.914z"></path>
<path d="M23.771 19.657h-2.286c-0.505 0-0.914 0.409-0.914 0.914s0.409 0.914 0.914 0.914h2.286c0.505 0 0.914-0.409 0.914-0.914s-0.409-0.914-0.914-0.914z"></path>
<path d="M20.571 20.571v2.286c0 0.505 0.409 0.914 0.914 0.914s0.914-0.409 0.914-0.914v-2.286c0-0.505-0.409-0.914-0.914-0.914s-0.914 0.409-0.914 0.914z"></path>
</symbol>
<symbol id="icon-student" viewBox="0 0 37 32">
<title>student</title>
<path d="M32.915 10.694l-14.197-7.383-14.532 6.384 13.99 8.153 14.74-7.153zM33.913 12.75l-14.74 7.153c-0.685 0.332-1.491 0.302-2.149-0.082l-13.99-8.153c-1.091-0.636-1.46-2.035-0.824-3.126 0.243-0.418 0.613-0.747 1.056-0.942l14.532-6.384c0.634-0.278 1.36-0.255 1.974 0.065l14.197 7.383c1.12 0.582 1.556 1.963 0.973 3.082-0.227 0.436-0.588 0.787-1.030 1.002z"></path>
<path d="M19.433 26.286h-6.862c-1.262 0-2.286-1.023-2.286-2.286v-9.143c0-0.631-0.512-1.143-1.143-1.143s-1.143 0.512-1.143 1.143v9.143c0 2.525 2.047 4.571 4.571 4.571h6.862c0.631 0 1.143-0.512 1.143-1.143s-0.512-1.143-1.143-1.143z"></path>
<path d="M17.775 10.165l9.143 4.571c0.565 0.282 1.251 0.053 1.533-0.511s0.053-1.251-0.511-1.533l-9.143-4.571c-0.565-0.282-1.251-0.053-1.533 0.511s-0.053 1.251 0.511 1.533z"></path>
<path d="M26.286 13.714v6.857c0 0.631 0.512 1.143 1.143 1.143s1.143-0.512 1.143-1.143v-6.857c0-0.631-0.512-1.143-1.143-1.143s-1.143 0.512-1.143 1.143z"></path>
<path d="M26.286 22.857v6.857h2.286v-6.857h-2.286zM26.286 20.571h2.286c1.262 0 2.286 1.023 2.286 2.286v6.857c0 1.262-1.023 2.286-2.286 2.286h-2.286c-1.262 0-2.286-1.023-2.286-2.286v-6.857c0-1.262 1.023-2.286 2.286-2.286z"></path>
</symbol>
<symbol id="icon-systems" viewBox="0 0 27 32">
<title>systems</title>
<path d="M13.086 18.022c0.289-0.36 0.78-0.522 1.244-0.372 0.025 0.008 0.025 0.008 0.050 0.016 2.789 0.881 5.866-0.106 7.613-2.51 1.314-1.809 1.421-5.109 0.402-7.54-0.244-0.582 0.030-1.252 0.612-1.496s1.252 0.030 1.496 0.612c1.304 3.113 1.171 7.246-0.661 9.767-2.154 2.965-5.823 4.313-9.304 3.57l-4.619 9.249c-0.62 1.242-2.13 1.746-3.373 1.126-0.124-0.062-0.242-0.134-0.354-0.215l-4.777-3.471c-1.123-0.816-1.372-2.389-0.556-3.512 0.081-0.112 0.172-0.217 0.271-0.314l7.381-7.262c-1.761-3.075-1.607-6.964 0.539-9.919 1.878-2.584 5.801-3.919 9.43-3.509 0.308 0.124 0.452 0.253 0.578 0.363 0.3 0.259 0.281 0.446 0.281 0.824-0.036 0.279-0.036 0.279-0.087 0.422-0.050 0.139-0.122 0.29-0.222 0.477-0.167 0.311-0.429 0.747-0.791 1.32-0.603 0.954-1.494 2.3-2.673 4.039l3.423 2.487c0.511 0.371 0.624 1.086 0.253 1.596s-1.086 0.624-1.596 0.253l-5.216-3.79 0.625-0.916c1.458-2.138 2.533-3.754 3.222-4.842-2.18 0.205-4.323 1.169-5.378 2.621-1.756 2.417-1.734 5.666-0.012 8.049 0.32 0.443 0.277 1.037-0.071 1.429-0.044 0.067-0.095 0.13-0.155 0.188-5.297 5.213-7.948 7.823-7.953 7.83-0.074 0.102-0.052 0.245 0.051 0.319l4.777 3.471c0.010 0.007 0.021 0.014 0.032 0.020 0.113 0.056 0.25 0.011 0.307-0.102l4.97-9.951c0.063-0.125 0.145-0.234 0.242-0.325z"></path>
</symbol>
<symbol id="icon-target" viewBox="0 0 39 32">
<title>target</title>
<path d="M5.789 20.393c-0.491 0.176-0.946 0.363-1.362 0.559-2.007 0.945-3.196 2.142-3.196 3.664 0 3.81 8.203 6.154 18.462 6.154s18.462-2.344 18.462-6.154c0-3.81-8.203-6.154-18.462-6.154-0.826 0-1.644 0.016-2.452 0.048-0.436 0.017-0.869 0.039-1.297 0.066-0.678 0.042-1.194 0.626-1.152 1.305s0.626 1.194 1.305 1.152c0.41-0.025 0.825-0.047 1.243-0.063 0.775-0.031 1.561-0.047 2.354-0.047 8.774 0 16 2.065 16 3.692s-7.226 3.692-16 3.692c-8.774 0-16-2.065-16-3.692 0-0.303 0.549-0.856 1.783-1.437 0.342-0.161 0.725-0.318 1.145-0.469 0.64-0.23 0.972-0.934 0.743-1.574s-0.934-0.972-1.574-0.743z"></path>
<path d="M9.846 3.692v19.692c0 0.68 0.551 1.231 1.231 1.231s1.231-0.551 1.231-1.231v-19.692c0-0.68-0.551-1.231-1.231-1.231s-1.231 0.551-1.231 1.231z"></path>
<path d="M12.308 10.395c2.408 0.545 4.812 0.816 7.216 0.816 2.44 0 4.957-0.28 7.553-0.843v-7.271c-2.518 0.485-5.037 0.729-7.558 0.729-2.458 0-4.862-0.231-7.212-0.694v7.262zM11.367 0.406c2.638 0.639 5.356 0.959 8.153 0.959 2.835 0 5.672-0.328 8.511-0.985 0.662-0.153 1.323 0.259 1.477 0.922 0.021 0.091 0.032 0.184 0.032 0.277v9.77c0 0.569-0.39 1.063-0.942 1.196-3.115 0.751-6.139 1.127-9.073 1.127-2.919 0-5.836-0.372-8.751-1.116-0.545-0.139-0.926-0.63-0.926-1.193v-9.762c0-0.68 0.551-1.231 1.231-1.231 0.098 0 0.195 0.012 0.29 0.035z"></path>
</symbol>
<symbol id="icon-work-scedule" viewBox="0 0 32 32">
<title>work-scedule</title>
<path d="M13.78 5.714h4.571v-2.286h-4.571v2.286zM25.057 5.714h2.372c0.631 0 1.143 0.512 1.143 1.143v20.571c0 0.631-0.512 1.143-1.143 1.143h-22.857c-0.631 0-1.143-0.512-1.143-1.143v-20.571c0-0.631 0.512-1.143 1.143-1.143h2.542v-2.286h-2.542c-1.894 0-3.429 1.535-3.429 3.429v20.571c0 1.894 1.535 3.429 3.429 3.429h22.857c1.894 0 3.429-1.535 3.429-3.429v-20.571c0-1.894-1.535-3.429-3.429-3.429h-2.372v2.286z"></path>
<path d="M9.143 1.143v4.571c0 0.631 0.512 1.143 1.143 1.143s1.143-0.512 1.143-1.143v-4.571c0-0.631-0.512-1.143-1.143-1.143s-1.143 0.512-1.143 1.143z"></path>
<path d="M20.571 1.143v4.571c0 0.631 0.512 1.143 1.143 1.143s1.143-0.512 1.143-1.143v-4.571c0-0.631-0.512-1.143-1.143-1.143s-1.143 0.512-1.143 1.143z"></path>
<path d="M10.62 21.38l3.429 3.429c0.446 0.446 1.17 0.446 1.616 0s0.446-1.17 0-1.616l-3.429-3.429c-0.446-0.446-1.17-0.446-1.616 0s-0.446 1.17 0 1.616z"></path>
<path d="M22.522 17.951l-6.857 6.857c-0.446 0.446-1.17 0.446-1.616 0s-0.446-1.17 0-1.616l6.857-6.857c0.446-0.446 1.17-0.446 1.616 0s0.446 1.17 0 1.616z"></path>
<path d="M2.286 13.714h27.429v-2.286h-27.429z"></path>
</symbol>
<symbol id="icon-baoduManage" viewBox="0 0 13.4 12.5">
<path fill="#fff" d="M4.79,12h0l-.32.39a1.08,1.08,0,0,1-.43.31l-2.71,1a.41.41,0,0,1-.22,0,.48.48,0,0,1-.31-.13A.55.55,0,0,1,.6,13l.45-2.9a1.09,1.09,0,0,1,.22-.49L7.86,1.53A1,1,0,0,1,9.25,1.4l1.68,1.44a1,1,0,0,1,.12,1.43ZM8.52,2.21,2.38,9.75l1.8,1.49,6.07-7.49a.12.12,0,0,0,0-.16L8.66,2.19l-.06,0A.09.09,0,0,0,8.52,2.21ZM3.6,12.09a.05.05,0,0,0,0,0l0,0L2,10.73l0,0a.08.08,0,0,0,0,.05l-.31,1.89ZM11.5,7h2a.5.5,0,0,1,0,1h-2a.5.5,0,0,1,0-1Zm-2,2.5h4a.5.5,0,0,1,0,1h-4a.5.5,0,0,1,0-1ZM7.5,12h6a.5.5,0,0,1,0,1h-6a.5.5,0,0,1,0-1Z" transform="translate(-0.6 -1.17)"/>
</symbol>
</defs>
</svg>
