<?xml version="1.0" encoding="UTF-8"?>
<svg width="116px" height="103px" viewBox="0 0 116 103" version="1.1" xmlns="http://www.w3.org/2000/svg" xmlns:xlink="http://www.w3.org/1999/xlink">
    <!-- Generator: Sketch 46.2 (44496) - http://www.bohemiancoding.com/sketch -->
    <title>暂无数据</title>
    <desc>Created with Sketch.</desc>
    <defs></defs>
    <g id="成绩模版管理／成绩管理" stroke="none" stroke-width="1" fill="none" fill-rule="evenodd">
        <g id="6成绩管理（1基准成绩和对比成绩设置）-copy-3" transform="translate(-627.000000, -402.000000)">
            <g id="暂无数据" transform="translate(624.000000, 396.000000)">
                <g id="Group-5" fill-rule="nonzero" fill="#AAAAAA">
                    <path d="M84.5,94.5058594 L84.5,97.5 C84.5,100.261424 82.2614237,102.5 79.5,102.5 L10.5,102.5 C7.73857625,102.5 5.5,100.261424 5.5,97.5 L5.5,13.5 C5.5,10.7385763 7.73857625,8.5 10.5,8.5 L79.5,8.5 C82.2614237,8.5 84.5,10.7385763 84.5,13.5 L84.5,40.0407715 C84.5,40.5930562 84.9477153,41.0407715 85.5,41.0407715 C86.0522847,41.0407715 86.5,40.5930562 86.5,40.0407715 L86.5,13.5 C86.5,9.63400675 83.3659932,6.5 79.5,6.5 L10.5,6.5 C6.63400675,6.5 3.5,9.63400675 3.5,13.5 L3.5,97.5 C3.5,101.365993 6.63400675,104.5 10.5,104.5 L79.5,104.5 C83.3659932,104.5 86.5,101.365993 86.5,97.5 L86.5,94.5058594 C86.5,93.9535746 86.0522847,93.5058594 85.5,93.5058594 C84.9477153,93.5058594 84.5,93.9535746 84.5,94.5058594 Z" id="Rectangle-52"></path>
                    <path d="M80.25,88 C69.3334108,88 60.5,78.8132528 60.5,67.5 C60.5,56.1867472 69.3334108,47 80.25,47 C91.1665892,47 100,56.1867472 100,67.5 C100,73.3832393 97.5979977,78.8693486 93.4671495,82.7332455 C89.8661851,86.1015019 85.2000391,88 80.25,88 Z M80.25,86 C84.6850723,86 88.8651857,84.2992523 92.1009192,81.2726242 C95.8291967,77.7852823 98,72.8272253 98,67.5 C98,57.2741475 90.0440889,49 80.25,49 C70.4559111,49 62.5,57.2741475 62.5,67.5 C62.5,77.7258525 70.4559111,86 80.25,86 Z" id="Oval-19"></path>
                </g>
                <polygon id="Line-17" fill="#AAAAAA" fill-rule="nonzero" points="91.9607864 82.875 95.625 86.5392136 97.0392136 85.125 93.375 81.4607864"></polygon>
                <path d="M98.9197031,86.24726 C98.7818964,86.1185368 98.6025349,86.1241287 98.4773403,86.2558894 L97.1732298,87.628397 C97.0218276,87.7877398 97.0140719,88.0632836 97.1742947,88.2536798 L111.688396,106.379928 C111.834187,106.534349 112.023636,106.534349 112.154184,106.396954 L115.920518,102.433086 C116.085925,102.238096 116.069641,101.94908 115.912335,101.801986 L98.9197031,86.24726 Z M117.270364,100.333773 C118.215311,101.216938 118.299757,102.715728 117.464315,103.705837 C117.418398,103.759184 117.418398,103.759184 117.370396,103.810711 L113.604062,107.774579 C112.685035,108.741807 111.172787,108.741807 110.25376,107.774579 C110.205717,107.723007 110.205717,107.723007 110.143534,107.649866 L95.6294332,89.5236182 C94.8287712,88.5747291 94.8688706,87.1500672 95.7233513,86.2507713 L97.0274618,84.8782637 C97.9068008,83.9528058 99.3398675,83.9067519 100.273438,84.7750433 L117.270364,100.333773 Z" id="Rectangle-45" fill="#AAAAAA" fill-rule="nonzero"></path>
                <g id="Group-4" transform="translate(18.000000, 57.000000)" fill="#DFDFDF">
                    <g id="Group-8">
                        <path d="M40.228599,0 L1,0 L1,0 C0.44771525,1.01453063e-16 -6.76353751e-17,0.44771525 0,1 L0,1 L0,2 C6.76353751e-17,2.55228475 0.44771525,3 1,3 L38.9936749,3 C39.3476586,1.96987344 39.7606945,0.96843905 40.228599,-3.24185123e-14 Z" id="Combined-Shape"></path>
                        <path d="M37.5398247,13.5 L1,13.5 L1,13.5 C0.44771525,13.5 -6.76353751e-17,13.9477153 0,14.5 L0,14.5 L0,15.5 C6.76353751e-17,16.0522847 0.44771525,16.5 1,16.5 L37.8629432,16.5 C37.702607,15.5169938 37.5939117,14.5159764 37.5398247,13.5 Z" id="Combined-Shape"></path>
                        <path d="M41.9203514,27 L1,27 L1,27 C0.44771525,27 -6.76353751e-17,27.4477153 0,28 L0,28 L0,29 C6.76353751e-17,29.5522847 0.44771525,30 1,30 L44.1840681,30 C43.3637408,29.0572711 42.6068668,28.0549036 41.9203514,27 Z" id="Combined-Shape"></path>
                    </g>
                </g>
                <g id="Group-9" transform="translate(21.000000, 27.000000)" fill="#DFDFDF">
                    <circle id="Oval-22" cx="5.25" cy="5.25" r="5.25"></circle>
                    <circle id="Oval-22-Copy" cx="24.75" cy="5.25" r="5.25"></circle>
                    <circle id="Oval-22-Copy-2" cx="44.25" cy="5.25" r="5.25"></circle>
                </g>
                <path d="M93.9575088,68.0982346 C93.9857894,67.7341394 94,67.367876 94,67 C94,66.1141066 93.9175914,65.2382218 93.7551469,64.380406 C93.6523871,63.8377653 93.1291867,63.4811715 92.5865461,63.5839312 C92.0439054,63.686691 91.6873115,64.2098914 91.7900713,64.7525321 C91.9293129,65.4878209 92,66.2391233 92,67 C92,67.3161773 91.987794,67.6307751 91.9635149,67.943354 C91.9207458,68.4939802 92.3324453,68.9750222 92.8830715,69.0177913 C93.4336978,69.0605604 93.9147397,68.6488608 93.9575088,68.0982346 Z M91.59874,59.1574494 C89.7114039,56.3712342 86.8759236,54.3399907 83.6121409,53.4706794 C82.4429922,53.1592757 81.2315621,53 80,53 C79.4477153,53 79,53.4477153 79,54 C79,54.5522847 79.4477153,55 80,55 C81.0573909,55 82.0957948,55.1365266 83.0973854,55.4033011 C85.8929109,56.1478917 88.3243059,57.889662 89.942875,60.2791049 C90.2526116,60.7363594 90.8743807,60.8559463 91.3316352,60.5462097 C91.7888897,60.236473 91.9084766,59.6147039 91.59874,59.1574494 Z" id="Oval-4" fill="#DFDFDF" fill-rule="nonzero"></path>
            </g>
        </g>
    </g>
</svg>